<svg width="36" height="36" viewBox="0 0 36 36" fill="none" xmlns="http://www.w3.org/2000/svg">
<rect width="35.0234" height="35.0234" rx="8" fill="#5588FD"/>
<path d="M7.7066 20.2494L13.0134 25.1266C14.8235 26.7901 17.6595 26.7162 19.3479 24.9614C21.0364 23.2066 20.9378 20.4356 19.1278 18.7721L13.8209 13.8949C12.0109 12.2314 9.17487 12.3053 7.48644 14.0601C5.79801 15.8149 5.89658 18.5859 7.7066 20.2494Z" fill="url(#paint0_linear_5363_151879)"/>
<path d="M21.4001 10.277L12.8535 19.1592C11.176 20.9026 11.2702 23.6523 13.064 25.3008C14.8577 26.9493 17.6716 26.8724 19.3491 25.129L27.8956 16.2467C29.5731 14.5033 29.4789 11.7536 27.6852 10.1051C25.8915 8.45664 23.0776 8.53357 21.4001 10.277Z" fill="white"/>
<path d="M22.6902 18.4903L19.3652 15.4345C19.1915 15.2749 18.9356 15.2652 18.7936 15.4128L18.7763 15.4308C18.6342 15.5784 18.6599 15.8274 18.8335 15.987L22.1585 19.0429C22.3322 19.2025 22.5881 19.2122 22.7301 19.0646L22.7474 19.0466C22.8895 18.8989 22.8639 18.6499 22.6902 18.4903Z" fill="#D5E1FF"/>
<defs>
<linearGradient id="paint0_linear_5363_151879" x1="3.65968" y1="11.0473" x2="20.2757" y2="24.211" gradientUnits="userSpaceOnUse">
<stop stop-color="#D5E1FF"/>
<stop offset="1" stop-color="#94B2FF"/>
</linearGradient>
</defs>
</svg>
