<svg width="19" height="21" viewBox="0 0 19 21" fill="none" xmlns="http://www.w3.org/2000/svg">
<path d="M0.357619 1.38132C0.131095 1.61252 0 1.97248 0 2.43864V19.0662C0 19.5324 0.131095 19.8924 0.357619 20.1236L0.413528 20.1743L9.96998 10.8605V10.6406L0.413528 1.32681L0.357619 1.38132Z" fill="#5F5F6F"/>
<path d="M14.3087 13.9668L11.1267 10.8606V10.6407L14.3125 7.53455L14.3838 7.57496L18.1567 9.66798C19.2334 10.262 19.2334 11.2394 18.1567 11.8371L14.3838 13.9264L14.3087 13.9668Z" fill="#5F5F6F"/>
<path d="M13.8055 14.5047L10.5484 11.329L0.936035 20.702C1.29366 21.0686 1.87684 21.1127 2.54002 20.7462L13.8055 14.5047Z" fill="#5F5F6F"/>
<path d="M13.8055 6.99665L2.54002 0.755195C1.87684 0.392418 1.29366 0.436589 0.936035 0.803126L10.5484 10.1724L13.8055 6.99665Z" fill="#5F5F6F"/>
</svg>
