<svg width="18" height="21" viewBox="0 0 18 21" fill="none" xmlns="http://www.w3.org/2000/svg">
<path d="M14.7471 11.1284C14.7224 8.48474 16.992 7.19858 17.0958 7.1387C15.8104 5.33167 13.8182 5.08477 13.1181 5.06509C11.4448 4.89529 9.82178 6.03053 8.96942 6.03053C8.10005 6.03053 6.78748 5.08149 5.37284 5.10938C3.55243 5.13645 1.84941 6.15275 0.91539 7.73092C-1.0122 10.9488 0.425411 15.6776 2.27219 18.2786C3.19601 19.5525 4.27549 20.9748 5.68843 20.9248C7.07075 20.8698 7.5871 20.075 9.25525 20.075C10.9081 20.075 11.3929 20.9248 12.834 20.8928C14.3175 20.8698 15.2515 19.6132 16.143 18.3278C17.2106 16.8678 17.6393 15.4299 17.6563 15.356C17.6215 15.3446 14.7752 14.2971 14.7471 11.1284Z" fill="#5F5F6F"/>
<path d="M12.025 3.35403C12.7685 2.45749 13.2772 1.23777 13.1359 0C12.0599 0.0459344 10.7141 0.717725 9.93917 1.59458C9.25354 2.36726 8.64107 3.63374 8.79929 4.82475C10.0081 4.9117 11.2492 4.23663 12.025 3.35403Z" fill="#5F5F6F"/>
</svg>
