<svg xmlns="http://www.w3.org/2000/svg" width="181" height="180" viewBox="0 0 181 180" fill="none">
  <path d="M109.509 37.9689C89.9788 18.4386 58.3146 18.4386 38.7843 37.9689C19.254 57.4991 19.254 89.1634 38.7843 108.694C58.3146 128.224 89.9788 128.224 109.509 108.694C129.039 89.1634 129.039 57.4991 109.509 37.9689ZM50.4799 96.9981C37.4055 83.9237 37.4125 62.7317 50.4799 49.6644C63.5472 36.5971 84.7463 36.5971 97.8136 49.6644C110.881 62.7317 110.881 83.9308 97.8136 96.9981C84.7463 110.065 63.5472 110.065 50.4799 96.9981Z" fill="#DBDBE6"/>
  <path d="M151.405 139.319L113.907 101.821L102.629 113.099L140.127 150.597L151.405 139.319Z" fill="#DBDBE6"/>
  <path d="M136.047 116.536L160.873 141.362C166.028 146.517 166.035 154.896 160.873 160.058C155.718 165.213 147.339 165.22 142.177 160.058L117.351 135.232C113.695 131.576 113.695 125.636 117.351 121.98L122.796 116.536C126.451 112.88 132.391 112.88 136.047 116.536Z" fill="#CBCBD8"/>
</svg>