<svg width="211" height="75" viewBox="0 0 211 75" fill="none" xmlns="http://www.w3.org/2000/svg">
<rect x="0.643555" width="74.2673" height="74.2673" rx="24" fill="#5588FD"/>
<path d="M16.9856 42.9392L28.2387 53.2814C32.0769 56.8089 38.0908 56.652 41.6711 52.931C45.2514 49.2101 45.0424 43.334 41.2043 39.8066L29.9511 29.4644C26.1129 25.9369 20.099 26.0938 16.5187 29.8148C12.9384 33.5357 13.1474 39.4118 16.9856 42.9392Z" fill="url(#paint0_linear_5430_103419)"/>
<path d="M46.0227 21.7921L27.8998 40.627C24.3426 44.3239 24.5424 50.1546 28.346 53.6503C32.1495 57.1459 38.1166 56.9828 41.6737 53.2859L59.7966 34.451C63.3538 30.7542 63.154 24.9234 59.3504 21.4278C55.5469 17.9321 49.5798 18.0952 46.0227 21.7921Z" fill="white"/>
<path d="M48.7587 39.2084L41.7079 32.7284C41.3397 32.39 40.7971 32.3695 40.4959 32.6825L40.4592 32.7207C40.158 33.0337 40.2123 33.5618 40.5805 33.9002L47.6313 40.3802C47.9995 40.7186 48.5421 40.7391 48.8433 40.4261L48.88 40.3879C49.1812 40.0749 49.1269 39.5468 48.7587 39.2084Z" fill="#D5E1FF"/>
<path d="M189.918 46.6593H163.517C161.476 46.6593 160.159 45.7963 160.159 43.0747C160.159 40.353 161.476 39.49 163.517 39.49H193.869C196.502 39.49 197.819 40.8177 197.819 42.8091V53.6294C197.819 55.6209 196.502 56.9485 193.869 56.9485H167.928V59.4711C167.928 60.2013 168.257 60.4668 168.981 60.4668H196.502C198.543 60.4668 199.86 61.3298 199.86 64.0514C199.86 66.7731 198.543 67.6361 196.502 67.6361H166.282C162.266 67.6361 160.027 65.5782 160.027 61.8608V53.4303C160.027 50.7086 161.344 49.912 163.385 49.912H189.918V46.6593ZM150.678 21.8324C150.678 12.9372 156.933 7.82574 166.94 7.82574C177.014 7.82574 183.005 12.9372 183.005 21.8324C183.005 31.325 176.619 35.839 166.94 35.839C157.328 35.839 150.678 31.325 150.678 21.8324ZM189.918 33.3829V9.94997C189.918 7.9585 191.235 6.63086 193.869 6.63086C196.502 6.63086 197.819 7.9585 197.819 9.94997V17.7167H203.02C205.061 17.7167 206.378 18.8452 206.378 21.5668C206.378 24.2885 205.061 25.417 203.02 25.417H197.819V33.3829C197.819 35.3743 196.502 36.702 193.869 36.702C191.235 36.702 189.918 35.3743 189.918 33.3829ZM175.17 21.8324C175.17 17.1192 171.549 14.995 166.94 14.995C162.331 14.995 158.579 17.0529 158.579 21.8324C158.579 26.5455 162.331 28.6697 166.94 28.6697C171.549 28.6697 175.17 26.5455 175.17 21.8324Z" fill="#5588FD"/>
<path d="M89.6721 22.9739C89.6721 13.6445 96.2561 8.02035 105.869 8.02035C115.547 8.02035 121.868 13.6445 121.868 22.9739C121.868 32.6342 115.547 37.9936 105.869 37.9936C96.2561 37.9936 89.6721 32.6342 89.6721 22.9739ZM128.649 51.7562H100.865C98.8238 51.7562 97.5071 50.6975 97.5071 47.9847C97.5071 45.2719 98.8238 44.2133 100.865 44.2133H133.456C135.497 44.2133 136.813 45.2719 136.813 47.9847V64.3278C136.813 66.3128 135.365 67.6361 132.731 67.6361C130.098 67.6361 128.649 66.3128 128.649 64.3278V51.7562ZM128.913 37.5966V9.93917C128.913 7.95418 130.229 6.63086 132.863 6.63086C135.497 6.63086 136.813 7.95418 136.813 9.93917V14.1076H142.015C144.056 14.1076 145.373 15.034 145.373 17.7468C145.373 20.4596 144.056 21.3859 142.015 21.3859H136.813V26.4146H142.015C144.056 26.4146 145.373 27.3409 145.373 30.0537C145.373 32.7665 144.056 33.6928 142.015 33.6928H136.813V37.5966C136.813 39.5816 135.497 40.9049 132.863 40.9049C130.229 40.9049 128.913 39.5816 128.913 37.5966ZM113.967 22.9739C113.967 17.8791 110.477 15.2986 105.869 15.2986C101.26 15.2986 97.7046 17.8791 97.7046 22.9739C97.7046 28.0687 101.26 30.7153 105.869 30.7153C110.477 30.7153 113.967 28.0687 113.967 22.9739Z" fill="#5588FD"/>
<defs>
<linearGradient id="paint0_linear_5430_103419" x1="8.40405" y1="23.4261" x2="43.6385" y2="51.3398" gradientUnits="userSpaceOnUse">
<stop stop-color="#D5E1FF"/>
<stop offset="1" stop-color="#94B2FF"/>
</linearGradient>
</defs>
</svg>
