<svg width="22" height="22" viewBox="0 0 22 22" fill="none" xmlns="http://www.w3.org/2000/svg">
<path fill-rule="evenodd" clip-rule="evenodd" d="M13.05 8.375C13.05 11.2331 10.7331 13.55 7.875 13.55C5.01693 13.55 2.7 11.2331 2.7 8.375C2.7 5.51693 5.01693 3.2 7.875 3.2C10.7331 3.2 13.05 5.51693 13.05 8.375ZM12.5916 14.6819C11.2768 15.6667 9.64404 16.25 7.875 16.25C3.52576 16.25 0 12.7242 0 8.375C0 4.02576 3.52576 0.5 7.875 0.5C12.2242 0.5 15.75 4.02576 15.75 8.375C15.75 9.97989 15.2699 11.4726 14.4455 12.7175L20.7734 19.0454C21.3006 19.5726 21.3006 20.4274 20.7734 20.9546C20.2462 21.4818 19.3915 21.4818 18.8643 20.9546L12.5916 14.6819Z" fill="#B1B1C3"/>
</svg>
