<svg width="160" height="32" viewBox="0 0 160 32" fill="none" xmlns="http://www.w3.org/2000/svg">
<path d="M14.2065 3.63397C14.9402 2.14748 17.0598 2.14748 17.7935 3.63397L20.2369 8.58498C20.5283 9.17527 21.0914 9.58441 21.7428 9.67906L27.2066 10.473C28.847 10.7114 29.502 12.7273 28.315 13.8844L24.3614 17.7382C23.89 18.1977 23.6749 18.8597 23.7862 19.5085L24.7195 24.9502C24.9997 26.584 23.2849 27.8299 21.8176 27.0585L16.9307 24.4893C16.348 24.183 15.652 24.183 15.0693 24.4893L10.1824 27.0585C8.71512 27.8299 7.00026 26.584 7.28048 24.9501L8.2138 19.5085C8.32508 18.8597 8.10998 18.1977 7.63861 17.7382L3.68499 13.8844C2.49796 12.7273 3.15298 10.7114 4.79342 10.473L10.2572 9.67906C10.9086 9.58441 11.4717 9.17527 11.7631 8.58498L14.2065 3.63397Z" fill="#DBDBE6"/>
<path d="M46.2065 3.63397C46.9402 2.14748 49.0598 2.14748 49.7935 3.63397L52.2369 8.58498C52.5283 9.17527 53.0914 9.58441 53.7428 9.67906L59.2066 10.473C60.847 10.7114 61.502 12.7273 60.315 13.8844L56.3614 17.7382C55.89 18.1977 55.6749 18.8597 55.7862 19.5085L56.7195 24.9502C56.9997 26.584 55.2849 27.8299 53.8176 27.0585L48.9307 24.4893C48.348 24.183 47.652 24.183 47.0693 24.4893L42.1824 27.0585C40.7151 27.8299 39.0003 26.584 39.2805 24.9501L40.2138 19.5085C40.3251 18.8597 40.11 18.1977 39.6386 17.7382L35.685 13.8844C34.498 12.7273 35.153 10.7114 36.7934 10.473L42.2572 9.67906C42.9086 9.58441 43.4717 9.17527 43.7631 8.58498L46.2065 3.63397Z" fill="#DBDBE6"/>
<path d="M78.2065 3.63397C78.9402 2.14748 81.0598 2.14748 81.7935 3.63397L84.2369 8.58498C84.5283 9.17527 85.0914 9.58441 85.7428 9.67906L91.2066 10.473C92.847 10.7114 93.502 12.7273 92.315 13.8844L88.3614 17.7382C87.89 18.1977 87.6749 18.8597 87.7862 19.5085L88.7195 24.9502C88.9997 26.584 87.2849 27.8299 85.8176 27.0585L80.9307 24.4893C80.348 24.183 79.652 24.183 79.0693 24.4893L74.1824 27.0585C72.7151 27.8299 71.0003 26.584 71.2805 24.9501L72.2138 19.5085C72.3251 18.8597 72.11 18.1977 71.6386 17.7382L67.685 13.8844C66.498 12.7273 67.153 10.7114 68.7934 10.473L74.2572 9.67906C74.9086 9.58441 75.4717 9.17527 75.7631 8.58498L78.2065 3.63397Z" fill="#DBDBE6"/>
<path d="M110.207 3.63397C110.94 2.14748 113.06 2.14748 113.793 3.63397L116.237 8.58498C116.528 9.17527 117.091 9.58441 117.743 9.67906L123.207 10.473C124.847 10.7114 125.502 12.7273 124.315 13.8844L120.361 17.7382C119.89 18.1977 119.675 18.8597 119.786 19.5085L120.72 24.9502C121 26.584 119.285 27.8299 117.818 27.0585L112.931 24.4893C112.348 24.183 111.652 24.183 111.069 24.4893L106.182 27.0585C104.715 27.8299 103 26.584 103.28 24.9501L104.214 19.5085C104.325 18.8597 104.11 18.1977 103.639 17.7382L99.685 13.8844C98.498 12.7273 99.153 10.7114 100.793 10.473L106.257 9.67906C106.909 9.58441 107.472 9.17527 107.763 8.58498L110.207 3.63397Z" fill="#DBDBE6"/>
<path d="M142.207 3.63397C142.94 2.14748 145.06 2.14748 145.793 3.63397L148.237 8.58498C148.528 9.17527 149.091 9.58441 149.743 9.67906L155.207 10.473C156.847 10.7114 157.502 12.7273 156.315 13.8844L152.361 17.7382C151.89 18.1977 151.675 18.8597 151.786 19.5085L152.72 24.9502C153 26.584 151.285 27.8299 149.818 27.0585L144.931 24.4893C144.348 24.183 143.652 24.183 143.069 24.4893L138.182 27.0585C136.715 27.8299 135 26.584 135.28 24.9501L136.214 19.5085C136.325 18.8597 136.11 18.1977 135.639 17.7382L131.685 13.8844C130.498 12.7273 131.153 10.7114 132.793 10.473L138.257 9.67906C138.909 9.58441 139.472 9.17527 139.763 8.58498L142.207 3.63397Z" fill="#DBDBE6"/>
</svg>
