<svg width="143" height="19" viewBox="0 0 143 19" fill="none" xmlns="http://www.w3.org/2000/svg">
<g clip-path="url(#clip0_5363_151895)">
<g opacity="0.93">
<path d="M41.4602 0H22.9894L14.7738 12.1718L6.56535 0H0L11.4947 17.0375L11.693 17.3315C12.3941 18.3752 13.5486 19 14.7738 19C15.9991 19 17.1535 18.3752 17.8546 17.3315L18.0529 17.0375L26.3464 4.74081H41.446C42.5792 4.74081 43.4999 5.69633 43.4999 6.87234C43.4999 8.04836 42.5792 9.00387 41.446 9.00387H26.1552V18.3752H31.3678V13.8329H41.446C45.1288 13.8329 48.1105 10.7385 48.1105 6.91644C48.1105 3.09439 45.143 0 41.4602 0Z" fill="#DBDBE6"/>
<path d="M54.1943 3.49121H58.1038L60.8305 12.5318L63.5218 3.49121H67.318L62.8207 16.0525H58.7625L54.1873 3.49121H54.1943Z" fill="#DBDBE6"/>
<path d="M68.6919 3.49121H72.4385V16.0525H68.6919V3.49121Z" fill="#DBDBE6"/>
<path d="M75.1155 3.49121H85.1441V6.174H78.8691V8.17322H84.6908V10.7384H78.8691V13.2154H85.3283V16.0599H75.1226V3.49121H75.1155Z" fill="#DBDBE6"/>
<path d="M86.0933 3.49121H89.6486L90.9305 10.5253L92.8003 3.49121H96.3414L98.2183 10.5179L99.5002 3.49121H103.034L100.364 16.0525H96.6956L94.5709 8.14382L92.4532 16.0525H88.7846L86.0933 3.49121Z" fill="#DBDBE6"/>
<path d="M105.116 3.49121H111.661C113.084 3.49121 114.154 3.82197 114.862 4.49082C115.57 5.15968 115.924 6.10785 115.924 7.34266C115.924 8.57748 115.535 9.59914 114.763 10.3195C113.991 11.0324 112.808 11.3926 111.221 11.3926H109.068V16.0525H105.116V3.49121ZM109.068 8.84943H110.032C110.789 8.84943 111.321 8.71713 111.632 8.45988C111.937 8.20262 112.093 7.86452 112.093 7.46026C112.093 7.05601 111.958 6.7326 111.696 6.46065C111.427 6.1887 110.931 6.04904 110.195 6.04904H109.075V8.84943H109.068Z" fill="#DBDBE6"/>
<path d="M123.601 13.9798H119.352L118.764 16.0525H114.947L119.501 3.49121H123.58L128.127 16.0525H124.211L123.601 13.9798ZM122.822 11.2676L121.484 6.7473L120.159 11.2676H122.815H122.822Z" fill="#DBDBE6"/>
<path d="M129.388 3.49121H134.31L136.208 11.1353L138.092 3.49121H143.007V16.0525H139.94V6.468L137.582 16.0525H134.806L132.447 6.468V16.0525H129.381V3.49121H129.388Z" fill="#DBDBE6"/>
</g>
</g>
<defs>
<clipPath id="clip0_5363_151895">
<rect width="143" height="19" fill="white"/>
</clipPath>
</defs>
</svg>
