<svg width="24" height="24" viewBox="0 0 24 24" fill="none" xmlns="http://www.w3.org/2000/svg">
<g id="icon-mypage-yakal">
<path id="Union" fill-rule="evenodd" clip-rule="evenodd" d="M21.6538 11.8486C23.449 10.0534 23.449 7.1428 21.6538 5.34761C19.8586 3.55242 16.948 3.55242 15.1528 5.34761L10.547 9.95347L8.84735 8.25387C7.05216 6.45867 4.14158 6.45867 2.34639 8.25386C0.551203 10.0491 0.551202 12.9596 2.34639 14.7548L7.17879 19.5872C7.21646 19.6277 7.25499 19.6676 7.29439 19.707C8.04709 20.4597 8.99587 20.8968 9.97631 21.0183C11.3357 21.1882 12.7564 20.7513 13.8001 19.7076C13.8448 19.6629 13.8884 19.6175 13.9309 19.5714L21.6538 11.8486Z" fill="#000000"/>
</g>
</svg>
