<svg width="99" height="36" viewBox="0 0 99 36" fill="none" xmlns="http://www.w3.org/2000/svg">
<rect width="35.0234" height="35.0234" rx="8" fill="#5588FD"/>
<path d="M7.7066 20.2494L13.0134 25.1266C14.8235 26.7901 17.6595 26.7162 19.3479 24.9614C21.0364 23.2066 20.9378 20.4356 19.1278 18.7721L13.8209 13.8949C12.0109 12.2314 9.17487 12.3053 7.48644 14.0601C5.79801 15.8149 5.89658 18.5859 7.7066 20.2494Z" fill="url(#paint0_linear_5363_151878)"/>
<path d="M21.4001 10.277L12.8535 19.1592C11.176 20.9026 11.2702 23.6523 13.064 25.3008C14.8577 26.9493 17.6716 26.8724 19.3491 25.129L27.8956 16.2467C29.5731 14.5033 29.4789 11.7536 27.6852 10.1051C25.8915 8.45664 23.0776 8.53357 21.4001 10.277Z" fill="white"/>
<path d="M22.6902 18.4903L19.3652 15.4345C19.1915 15.2749 18.9356 15.2652 18.7936 15.4128L18.7763 15.4308C18.6342 15.5784 18.6599 15.8274 18.8335 15.987L22.1585 19.0429C22.3322 19.2025 22.5881 19.2122 22.7301 19.0646L22.7474 19.0466C22.8895 18.8989 22.8639 18.6499 22.6902 18.4903Z" fill="#D5E1FF"/>
<path d="M89.3617 22.0038H76.911C75.9485 22.0038 75.3275 21.5968 75.3275 20.3133C75.3275 19.0298 75.9485 18.6229 76.911 18.6229H91.2246C92.4666 18.6229 93.0876 19.249 93.0876 20.1881V25.2908C93.0876 26.2299 92.4666 26.856 91.2246 26.856H78.9913V28.0456C78.9913 28.39 79.1465 28.5152 79.4881 28.5152H92.4666C93.4291 28.5152 94.0501 28.9222 94.0501 30.2057C94.0501 31.4892 93.4291 31.8961 92.4666 31.8961H78.2151C76.3211 31.8961 75.2654 30.9257 75.2654 29.1726V25.1969C75.2654 23.9134 75.8864 23.5377 76.8489 23.5377H89.3617V22.0038ZM70.8564 10.2958C70.8564 6.10091 73.8061 3.69044 78.5256 3.69044C83.2761 3.69044 86.1015 6.10091 86.1015 10.2958C86.1015 14.7724 83.0898 16.9011 78.5256 16.9011C73.9924 16.9011 70.8564 14.7724 70.8564 10.2958ZM89.3617 15.7428V4.6922C89.3617 3.75305 89.9827 3.12695 91.2246 3.12695C92.4666 3.12695 93.0876 3.75305 93.0876 4.6922V8.35487H95.5405C96.503 8.35487 97.124 8.88705 97.124 10.1705C97.124 11.454 96.503 11.9862 95.5405 11.9862H93.0876V15.7428C93.0876 16.682 92.4666 17.3081 91.2246 17.3081C89.9827 17.3081 89.3617 16.682 89.3617 15.7428ZM82.4067 10.2958C82.4067 8.07312 80.699 7.07137 78.5256 7.07137C76.3521 7.07137 74.5823 8.04182 74.5823 10.2958C74.5823 12.5184 76.3521 13.5202 78.5256 13.5202C80.699 13.5202 82.4067 12.5184 82.4067 10.2958Z" fill="#5588FD"/>
<path d="M42.0872 10.8341C42.0872 6.43447 45.1921 3.78222 49.7252 3.78222C54.2894 3.78222 57.2702 6.43447 57.2702 10.8341C57.2702 15.3897 54.2894 17.9172 49.7252 17.9172C45.1921 17.9172 42.0872 15.3897 42.0872 10.8341ZM60.4682 24.4074H47.3655C46.403 24.4074 45.782 23.9082 45.782 22.6288C45.782 21.3495 46.403 20.8503 47.3655 20.8503H62.7348C63.6973 20.8503 64.3183 21.3495 64.3183 22.6288V30.336C64.3183 31.2721 63.6352 31.8961 62.3933 31.8961C61.1513 31.8961 60.4682 31.2721 60.4682 30.336V24.4074ZM60.5924 17.73V4.6871C60.5924 3.75101 61.2134 3.12695 62.4553 3.12695C63.6973 3.12695 64.3183 3.75101 64.3183 4.6871V6.65289H66.7712C67.7337 6.65289 68.3547 7.08974 68.3547 8.36906C68.3547 9.64838 67.7337 10.0852 66.7712 10.0852H64.3183V12.4567H66.7712C67.7337 12.4567 68.3547 12.8935 68.3547 14.1728C68.3547 15.4521 67.7337 15.889 66.7712 15.889H64.3183V17.73C64.3183 18.6661 63.6973 19.2901 62.4553 19.2901C61.2134 19.2901 60.5924 18.6661 60.5924 17.73ZM53.5443 10.8341C53.5443 8.43147 51.8987 7.21455 49.7252 7.21455C47.5518 7.21455 45.8751 8.43147 45.8751 10.8341C45.8751 13.2367 47.5518 14.4848 49.7252 14.4848C51.8987 14.4848 53.5443 13.2367 53.5443 10.8341Z" fill="#5588FD"/>
<defs>
<linearGradient id="paint0_linear_5363_151878" x1="3.65968" y1="11.0473" x2="20.2757" y2="24.211" gradientUnits="userSpaceOnUse">
<stop stop-color="#D5E1FF"/>
<stop offset="1" stop-color="#94B2FF"/>
</linearGradient>
</defs>
</svg>
