<svg width="30" height="24" viewBox="0 0 30 24" fill="none" xmlns="http://www.w3.org/2000/svg">
<path d="M21.7307 0H3.15921C1.86509 0 0.812256 1.05351 0.812256 2.34852V17.3657C0.812256 18.6607 1.86509 19.7143 3.15921 19.7143H5.86147L4.58517 22.4558C4.21777 23.245 5.05227 24.0433 5.82027 23.6688L13.9292 19.7143H21.7307C23.0248 19.7143 24.0777 18.6607 24.0777 17.3657V2.34852C24.0776 1.05351 23.0248 0 21.7307 0ZM19.2409 14.7551H5.64902C5.14185 14.7551 4.73068 14.3439 4.73068 13.8368C4.73068 13.3296 5.14185 12.9184 5.64902 12.9184H19.2409C19.748 12.9184 20.1592 13.3296 20.1592 13.8368C20.1592 14.3439 19.748 14.7551 19.2409 14.7551ZM19.2409 10.7755H5.64902C5.14185 10.7755 4.73068 10.3643 4.73068 9.85714C4.73068 9.34997 5.14185 8.9388 5.64902 8.9388H19.2409C19.748 8.9388 20.1592 9.34997 20.1592 9.85714C20.1592 10.3643 19.748 10.7755 19.2409 10.7755ZM19.2409 6.79592H5.64902C5.14185 6.79592 4.73068 6.38474 4.73068 5.87757C4.73068 5.37041 5.14185 4.95923 5.64902 4.95923H19.2409C19.748 4.95923 20.1592 5.37041 20.1592 5.87757C20.1592 6.38474 19.748 6.79592 19.2409 6.79592Z" fill="#000000"/>
<path d="M27.2423 4.28613H26.2205C26.0515 4.28613 25.9144 4.42321 25.9144 4.59227V17.3661C25.9144 19.6739 24.0376 21.5515 21.7307 21.5515H14.4238C14.3773 21.5515 14.3314 21.562 14.2896 21.5824L11.7483 22.8218C11.5594 22.9139 11.5169 23.1651 11.6656 23.3137C12.0903 23.7377 12.6761 24.0005 13.3222 24.0005H27.2411C28.5372 24.0004 29.5878 22.9498 29.5878 21.6538V6.63527C29.5878 5.33992 28.5356 4.28613 27.2423 4.28613Z" fill="#000000"/>
</svg>
