<svg width="259" height="204" viewBox="0 0 259 204" fill="none" xmlns="http://www.w3.org/2000/svg">
<rect x="24.2744" width="204" height="204" rx="102" fill="#FAFAFF"/>
<path d="M73.428 28.752H197.295V187.46H73.428V28.752Z" fill="#D0D7DF"/>
<path d="M63.0859 18.2812H186.953V176.989H63.0859V18.2812Z" fill="#F2F2F2"/>
<path d="M97.4563 6H152.543V30.483H97.4563V6Z" fill="#333333"/>
<path fill-rule="evenodd" clip-rule="evenodd" d="M161.064 67.4101H89.295C87.5615 67.4101 86.1565 66.0354 86.1565 64.347C86.1565 62.6537 87.5619 61.2832 89.295 61.2832H161.065C162.799 61.2832 164.203 62.6541 164.203 64.347C164.203 66.0354 162.798 67.4101 161.064 67.4101ZM161.064 92.9439H89.295C87.5615 92.9439 86.1565 91.5723 86.1565 89.8801C86.1565 88.1875 87.5619 86.817 89.295 86.817H161.065C162.799 86.817 164.203 88.1879 164.203 89.8801C164.203 91.5723 162.798 92.9439 161.064 92.9439ZM161.064 118.481H89.295C87.5615 118.481 86.1565 117.11 86.1565 115.418C86.1565 113.725 87.5619 112.355 89.295 112.355H161.065C162.799 112.355 164.203 113.726 164.203 115.418C164.203 117.11 162.798 118.481 161.064 118.481ZM161.064 144.019H89.295C87.5615 144.019 86.1565 142.645 86.1565 140.956C86.1565 139.263 87.5619 137.892 89.295 137.892H125.18H161.065C162.799 137.892 164.203 139.264 164.203 140.956C164.203 142.645 162.798 144.019 161.064 144.019Z" fill="#333333"/>
<path d="M157.487 85.9231L146.383 73.25L117.309 98.7532L104.558 84.236L92.5125 94.7904L116.368 121.981L157.487 85.9231Z" fill="#64DD9D"/>
<circle cx="35.6854" cy="67.0176" r="4.13678" fill="#64DD9D" fill-opacity="0.5"/>
<ellipse cx="38.7879" cy="139.928" rx="3.10259" ry="2.58549" fill="#64DD9D" fill-opacity="0.5"/>
<circle cx="222.869" cy="137.86" r="4.65388" fill="#64DD9D" fill-opacity="0.5"/>
<ellipse cx="221.835" cy="74.2569" rx="3.61969" ry="3.10259" fill="#64DD9D" fill-opacity="0.5"/>
<path d="M10.6851 96.8264L16.3137 102.721L24.2333 104.648L18.3382 110.277L16.4113 118.197L10.7827 112.302L2.86307 110.375L8.75819 104.746L10.6851 96.8264Z" fill="#B1EDCD"/>
<path d="M247.301 88.8263L249.33 97.1627L255.535 103.088L247.199 105.116L241.274 111.321L239.245 102.985L233.04 97.06L241.376 95.0316L247.301 88.8263Z" fill="#B1EDCD"/>
</svg>
