<svg width="120" height="92" viewBox="0 0 120 92" fill="none" xmlns="http://www.w3.org/2000/svg">
<g filter="url(#filter0_d_1_54)">
<path d="M59.5165 17C76.9749 17 91.1443 30.0349 91.1443 46.0954V66.3703H27.8887V46.0954C27.8887 30.0349 42.0581 17 59.5165 17Z" fill="#FF9595"/>
</g>
<g filter="url(#filter1_f_1_54)">
<path d="M59.5021 28.5425C71.9791 28.5425 82.1057 38.7006 82.1057 51.2165V67.0167H36.8984V51.2165C36.8984 38.7006 47.025 28.5425 59.5021 28.5425Z" fill="#FFB7B7" fill-opacity="0.55"/>
</g>
<rect x="45.5548" y="41.0464" width="27.8938" height="10.5804" rx="5.29021" fill="#FFD5D5"/>
<rect x="64.7919" y="43.932" width="22.1227" height="10.5804" transform="rotate(90 64.7919 43.932)" fill="#FFD5D5"/>
<path d="M21.155 75.7127H97.9643C101.49 75.7127 104.344 78.5746 104.344 82.0923V91.0252H14.7754V82.0923C14.7754 78.5669 17.6373 75.7127 21.155 75.7127Z" fill="url(#paint0_linear_1_54)"/>
<path d="M29.2929 65.6064H89.8332C94.4386 65.6064 98.1799 69.3478 98.1799 73.9531V75.7119H20.9463V73.9531C20.9463 69.3478 24.6876 65.6064 29.2929 65.6064Z" fill="url(#paint1_linear_1_54)"/>
<defs>
<filter id="filter0_d_1_54" x="11.3887" y="0.5" width="96.2557" height="82.3703" filterUnits="userSpaceOnUse" color-interpolation-filters="sRGB">
<feFlood flood-opacity="0" result="BackgroundImageFix"/>
<feColorMatrix in="SourceAlpha" type="matrix" values="0 0 0 0 0 0 0 0 0 0 0 0 0 0 0 0 0 0 127 0" result="hardAlpha"/>
<feOffset/>
<feGaussianBlur stdDeviation="8.25"/>
<feComposite in2="hardAlpha" operator="out"/>
<feColorMatrix type="matrix" values="0 0 0 0 1 0 0 0 0 0.596078 0 0 0 0 0.596078 0 0 0 0.5 0"/>
<feBlend mode="normal" in2="BackgroundImageFix" result="effect1_dropShadow_1_54"/>
<feBlend mode="normal" in="SourceGraphic" in2="effect1_dropShadow_1_54" result="shape"/>
</filter>
<filter id="filter1_f_1_54" x="24.6984" y="16.3425" width="69.6073" height="62.8743" filterUnits="userSpaceOnUse" color-interpolation-filters="sRGB">
<feFlood flood-opacity="0" result="BackgroundImageFix"/>
<feBlend mode="normal" in="SourceGraphic" in2="BackgroundImageFix" result="shape"/>
<feGaussianBlur stdDeviation="6.1" result="effect1_foregroundBlur_1_54"/>
</filter>
<linearGradient id="paint0_linear_1_54" x1="14.7754" y1="83.369" x2="104.344" y2="83.369" gradientUnits="userSpaceOnUse">
<stop stop-color="#B1B1C3"/>
<stop offset="1" stop-color="#9F9FB2"/>
</linearGradient>
<linearGradient id="paint1_linear_1_54" x1="20.9463" y1="70.6592" x2="117.694" y2="70.6592" gradientUnits="userSpaceOnUse">
<stop stop-color="#CBCBD8"/>
<stop offset="1" stop-color="#BDBDD0"/>
</linearGradient>
</defs>
</svg>
