<svg width="134" height="86" viewBox="0 0 134 86" fill="none" xmlns="http://www.w3.org/2000/svg">
<g clip-path="url(#clip0_2171_18619)">
<path d="M74.7304 26.4491C80.9296 26.4491 85.955 21.4237 85.955 15.2246C85.955 9.02541 80.9296 4 74.7304 4C68.5313 4 63.5059 9.02541 63.5059 15.2246C63.5059 21.4237 68.5313 26.4491 74.7304 26.4491Z" fill="#B5BFE0"/>
<path d="M107.98 20.1162H41.4882C34.9444 20.1162 29.6396 25.421 29.6396 31.9648V120.151C29.6396 126.695 34.9444 132 41.4882 132H107.98C114.524 132 119.829 126.695 119.829 120.151V31.9648C119.829 25.421 114.524 20.1162 107.98 20.1162Z" fill="url(#paint0_linear_2171_18619)"/>
<path d="M106.856 27.9204H42.606C39.6447 27.9204 37.2441 30.321 37.2441 33.2823V118.826C37.2441 121.788 39.6447 124.188 42.606 124.188H106.856C109.818 124.188 112.218 121.788 112.218 118.826V33.2823C112.218 30.321 109.818 27.9204 106.856 27.9204Z" fill="#EFF2FB"/>
<path d="M91.7103 15.2246H57.7516C55.2115 15.2246 53.1523 17.2838 53.1523 19.8238V30.3011C53.1523 32.8412 55.2115 34.9003 57.7516 34.9003H91.7103C94.2504 34.9003 96.3095 32.8412 96.3095 30.3011V19.8238C96.3095 17.2838 94.2504 15.2246 91.7103 15.2246Z" fill="#B5BFE0"/>
<path d="M74.7306 19.9236C77.326 19.9236 79.43 17.8197 79.43 15.2243C79.43 12.6289 77.326 10.5249 74.7306 10.5249C72.1352 10.5249 70.0312 12.6289 70.0312 15.2243C70.0312 17.8197 72.1352 19.9236 74.7306 19.9236Z" fill="#F2F2F7"/>
<path d="M52.7132 42.1724H8.41583C5.42475 42.1724 3 44.5971 3 47.5882V71.971C3 74.9621 5.42475 77.3868 8.41583 77.3868H52.7132C55.7043 77.3868 58.129 74.9621 58.129 71.971V47.5882C58.129 44.5971 55.7043 42.1724 52.7132 42.1724Z" fill="#9EAAD3"/>
<path d="M50.4637 70.9465C49.4005 70.9927 48.7149 72.1175 49.1848 73.0728C49.909 74.5365 51.1724 76.4163 53.3526 78.011C54.801 79.0741 56.2724 79.7443 57.5513 80.1603C58.7299 80.5455 59.8008 79.39 59.3848 78.2267C59.0073 77.1789 58.6683 75.9925 58.4449 74.6829C58.1753 73.1729 58.1059 71.7939 58.129 70.6152L50.4714 70.9465H50.4637Z" fill="#9EAAD3"/>
<path d="M100.408 52.5811H81.6648C79.2821 52.5811 77.3506 54.5126 77.3506 56.8952V57.6887C77.3506 60.0714 79.2821 62.0029 81.6648 62.0029H100.408C102.791 62.0029 104.722 60.0714 104.722 57.6887V56.8952C104.722 54.5126 102.791 52.5811 100.408 52.5811Z" fill="#CFD7F1"/>
<path d="M95.7471 66.6637V47.9201C95.7471 45.5375 93.8155 43.606 91.4329 43.606H90.6394C88.2567 43.606 86.3252 45.5375 86.3252 47.9201V66.6637C86.3252 69.0463 88.2567 70.9779 90.6394 70.9779H91.4329C93.8155 70.9779 95.7471 69.0463 95.7471 66.6637Z" fill="#CFD7F1"/>
<path d="M36.9814 51.0708H14.1933C12.7382 51.0708 11.5586 52.2504 11.5586 53.7055V54.0214C11.5586 55.4765 12.7382 56.6561 14.1933 56.6561H36.9814C38.4365 56.6561 39.6161 55.4765 39.6161 54.0214V53.7055C39.6161 52.2504 38.4365 51.0708 36.9814 51.0708Z" fill="#EFF2FB"/>
<path d="M29.2929 62.9038H14.1933C12.7382 62.9038 11.5586 64.0834 11.5586 65.5385V65.8544C11.5586 67.3095 12.7382 68.4891 14.1933 68.4891H29.2929C30.7481 68.4891 31.9277 67.3095 31.9277 65.8544V65.5385C31.9277 64.0834 30.7481 62.9038 29.2929 62.9038Z" fill="#EFF2FB"/>
</g>
<defs>
<linearGradient id="paint0_linear_2171_18619" x1="74.7343" y1="20.1162" x2="74.7343" y2="160.5" gradientUnits="userSpaceOnUse">
<stop stop-color="#CFD7F1"/>
<stop offset="1" stop-color="#9EAAD3"/>
</linearGradient>
<clipPath id="clip0_2171_18619">
<rect width="134" height="86" fill="white"/>
</clipPath>
</defs>
</svg>
