<svg width="95" height="40" viewBox="0 0 95 40" fill="none" xmlns="http://www.w3.org/2000/svg">
<g id="Group 20791">
<rect id="Rectangle 1231" width="95" height="40" rx="0" fill="#DDDDDD"/>
<g id="Group 20787">
<line id="Line 2" x1="18.9975" y1="5.46392e-09" x2="18.9975" y2="40" stroke="#BFBFBF" stroke-width="0.2"/>
<line id="Line 4" x1="38.0844" y1="5.46392e-09" x2="38.0844" y2="40" stroke="#BFBFBF" stroke-width="0.2"/>
<line id="Line 10" x1="89.0996" y1="1.04336" x2="5.90076" y2="1.04336" stroke="#BFBFBF" stroke-width="0.2"/>
<line id="Line 11" x1="95" y1="10.5546" x2="-2.14303e-08" y2="10.5546" stroke="#BFBFBF" stroke-width="0.2"/>
<line id="Line 13" x1="95" y1="29.6415" x2="-2.14303e-08" y2="29.6415" stroke="#BFBFBF" stroke-width="0.2"/>
<line id="Line 6" x1="57.1752" y1="5.46392e-09" x2="57.1752" y2="40" stroke="#BFBFBF" stroke-width="0.2"/>
<line id="Line 8" x1="76.3256" y1="5.46392e-09" x2="76.3256" y2="40" stroke="#BFBFBF" stroke-width="0.2"/>
</g>
<g id="Group 20788">
<line id="Line 1" x1="9.48672" y1="5.46392e-09" x2="9.48672" y2="40" stroke="#CACACA" stroke-opacity="0.7" stroke-width="0.2"/>
<line id="Line 3" x1="28.5414" y1="5.46392e-09" x2="28.5414" y2="40" stroke="#CACACA" stroke-opacity="0.7" stroke-width="0.2"/>
<line id="Line 5" x1="47.6" y1="5.46392e-09" x2="47.6" y2="40" stroke="#CACACA" stroke-opacity="0.7" stroke-width="0.2"/>
<line id="Line 12" x1="95" y1="20.098" x2="-2.14303e-08" y2="20.098" stroke="#CACACA" stroke-opacity="0.7" stroke-width="0.2"/>
<line id="Line 14" x1="88.6826" y1="39.1566" x2="6.31689" y2="39.1566" stroke="#CACACA" stroke-opacity="0.7" stroke-width="0.2"/>
<line id="Line 7" x1="66.7504" y1="5.46392e-09" x2="66.7504" y2="40" stroke="#CACACA" stroke-opacity="0.7" stroke-width="0.2"/>
<line id="Line 9" x1="85.9008" y1="5.46392e-09" x2="85.9008" y2="40" stroke="#CACACA" stroke-opacity="0.7" stroke-width="0.2"/>
</g>
</g>
</svg>
