<svg width="40" height="24" viewBox="0 0 40 24" fill="none" xmlns="http://www.w3.org/2000/svg">
<path d="M39.8116 14.2359C39.7628 14.1163 39.6443 14.0393 39.5137 14.0503C39.1329 14.0675 37.4068 14.0699 37.2017 14.0784C35.5282 14.1578 33.8351 14.0076 32.3691 13.8794C30.8933 13.75 29.2722 13.7061 27.6975 13.7061C26.1229 13.7061 24.5946 13.75 23.2933 13.7939C21.9884 13.8391 20.7006 13.8831 20 13.8843C19.2993 13.883 18.0102 13.8391 16.7066 13.7939C15.4054 13.75 13.877 13.7061 12.3024 13.7061C10.7277 13.7061 9.10541 13.75 7.63208 13.8794C6.16484 14.0076 4.47175 14.1578 2.79819 14.0784C2.59312 14.0699 0.867057 14.0674 0.486205 14.0503C0.355582 14.0393 0.235975 14.1163 0.18832 14.2359C0.141915 14.3567 0.179805 14.4935 0.281131 14.574C0.281131 14.574 0.222538 14.5484 0.683935 14.8902C5.94266 18.8013 11.2208 23.5119 20 23.5119C28.7815 23.5119 34.0573 18.8013 39.316 14.8903C39.7762 14.5485 39.7188 14.5741 39.7188 14.5741C39.8201 14.4935 39.858 14.3567 39.8116 14.2359Z" fill="white"/>
<path d="M39.8678 11.124C39.8678 11.124 39.2941 10.8835 38.6105 10.2988C33.8303 6.19614 28.5289 -3.84882 20 1.5649C11.4699 -3.84882 6.16972 6.19614 1.38833 10.2989C0.705999 10.8835 0.132261 11.1241 0.132261 11.1241C0.0248408 11.1937 -0.0239863 11.3255 0.0114036 11.4488C0.0467935 11.572 0.156635 11.6575 0.283586 11.6624C0.283586 11.6624 1.5995 11.7502 2.79822 11.7502C4.4071 11.7502 6.0416 11.6819 7.42946 11.5598C9.00295 11.4218 10.6838 11.3779 12.3024 11.3779C13.9211 11.3779 15.4749 11.4219 16.7872 11.4671C18.0945 11.5122 19.3933 11.5562 20 11.5549C20.6055 11.5562 21.9043 11.5122 23.2128 11.4671C24.5238 11.4219 26.079 11.3779 27.6976 11.3779C29.3161 11.3779 30.997 11.4219 32.5705 11.5598C33.9572 11.6819 35.593 11.7502 37.2018 11.7502C38.4005 11.7502 39.7164 11.6624 39.7164 11.6624C39.8434 11.6574 39.9532 11.572 39.9886 11.4488C40.024 11.3255 39.9752 11.1936 39.8678 11.124Z" fill="white"/>
</svg>
