<svg width="24" height="24" viewBox="0 0 24 24" fill="none" xmlns="http://www.w3.org/2000/svg">
<path d="M21.8743 15.8133C21.0387 14.9149 19.9067 14.3682 18.6867 14.2736L18.6552 14.2712L4.87114 14.2577C2.1852 14.2577 0 16.4429 0 19.1289C0 21.8148 2.1852 24 4.87114 24H4.87198L18.6237 23.9865L18.6867 23.984C19.9066 23.8895 21.0386 23.3428 21.8743 22.4445C22.7147 21.541 23.1776 20.3635 23.1776 19.1289C23.1776 17.8942 22.7147 16.7168 21.8743 15.8133ZM11.7294 22.3402L4.87055 22.347C3.09645 22.3466 1.65307 20.9031 1.65307 19.1289C1.65307 17.3545 3.09669 15.9108 4.8703 15.9108L11.7294 15.9175V22.3402ZM2.15457 12.7015C2.98442 13.3074 4.00502 13.6411 5.0283 13.6412H5.02849C5.37907 13.6412 5.73123 13.6027 6.07512 13.5269L6.10595 13.5201L19.301 9.53392C21.8715 8.75469 23.3287 6.0295 22.5495 3.459C22.2401 2.43864 21.6226 1.56772 20.7635 0.940245C19.9334 0.3339 18.9126 0 17.8892 0C17.4096 0.000257158 16.9327 0.0712857 16.4738 0.210791L3.31748 4.21344L3.25785 4.23407C2.1178 4.67846 1.19309 5.53014 0.654045 6.63224C0.111877 7.74067 0.010589 9.00185 0.368735 10.1834C0.678093 11.2036 1.29562 12.0743 2.15457 12.7015ZM16.9542 1.79256C17.2574 1.70033 17.5724 1.65333 17.8892 1.65307C19.2937 1.65307 20.5595 2.59292 20.9675 3.93857C21.4822 5.63672 20.5195 7.4371 18.8222 7.95166L12.2562 9.93517L10.3929 3.78879L16.9542 1.79256Z" fill="#000000"/>
</svg>
