<svg width="120" height="120" viewBox="0 0 120 120" fill="none" xmlns="http://www.w3.org/2000/svg">
<path d="M34.7344 24.4219H92.8008C94.4883 24.4219 95.8594 25.793 95.8594 27.4805V65.6836C95.8594 67.3711 94.4883 68.7422 92.8008 68.7422H34.7344C33.0469 68.7422 31.6758 67.3711 31.6758 65.6836V27.4805C31.6758 25.793 33.0469 24.4219 34.7344 24.4219Z" fill="white"/>
<path d="M92.8008 71.7891H34.7344C31.3594 71.7891 28.6172 69.0469 28.6172 65.6719V27.4687C28.6172 24.0937 31.3594 21.3516 34.7344 21.3516H92.8008C96.1758 21.3516 98.918 24.0937 98.918 27.4687V65.6719C98.918 69.0469 96.1758 71.7891 92.8008 71.7891ZM34.7344 27.4805V65.6836H92.8008V27.4805H34.7344Z" fill="#9292A5"/>
<path d="M31.6758 47.3438H94.3242V53.4609H31.6758V47.3438Z" fill="#9292A5"/>
<path d="M17.2267 48.7974L70.9923 34.395C72.6212 33.9614 74.297 34.9224 74.7306 36.5513C74.7306 36.563 74.7306 36.563 74.7423 36.5747L85.0314 76.313C85.4532 77.9419 84.4806 79.5943 82.8634 80.0279L29.0978 94.4302C27.4689 94.8638 25.7931 93.9029 25.3595 92.2739C25.3595 92.2622 25.3595 92.2622 25.3478 92.2505L15.0587 52.5122C14.6368 50.8833 15.5978 49.231 17.2267 48.7974Z" fill="white"/>
<path d="M28.289 97.5946C27.2343 97.5946 26.1796 97.3134 25.2421 96.7743C23.8242 95.954 22.8163 94.6415 22.3945 93.0595L12.0937 53.2743C11.2617 50.0399 13.207 46.7001 16.4296 45.8446L70.1953 31.4423C71.7773 31.0204 73.4179 31.2313 74.8359 32.0517C76.2538 32.872 77.2617 34.1845 77.6835 35.7665L87.9843 75.5517C88.8163 78.786 86.8827 82.1259 83.6484 82.9813L29.8827 97.3837C29.3554 97.5243 28.8281 97.5946 28.289 97.5946ZM18.0117 51.7509L28.3007 91.4892L82.0663 77.0868L71.7773 37.3485L18.0117 51.7509Z" fill="#9292A5"/>
<path d="M17.9766 51.7383L71.8594 37.3945L79.2305 65.3906L25.3711 79.7578L17.9766 51.7383Z" fill="#CEF6D4"/>
<path d="M24.8789 79.1012C28.2656 68.0153 32.3672 61.6285 37.1602 59.9528C41.9648 58.2653 47.8242 62.0504 54.7617 71.3082" fill="white"/>
<path d="M24.8789 82.1594C24.5859 82.1594 24.2813 82.1125 23.9883 82.0305C22.3711 81.5383 21.4688 79.8273 21.9609 78.2101C25.6875 66.0226 30.3281 59.1086 36.1524 57.0695C42.4219 54.8781 49.3008 58.9328 57.2109 69.4679C58.2188 70.8156 57.9492 72.7375 56.6016 73.7453C55.2539 74.7531 53.332 74.4836 52.3242 73.1359C46.4883 65.3429 41.4609 61.6867 38.1797 62.8351C35.5664 63.7492 31.6289 67.4758 27.8086 79.9914C27.3867 81.3156 26.1797 82.1594 24.8789 82.1594Z" fill="#9292A5"/>
<path d="M46.957 74.0038C50.9414 64.6874 54.9961 59.2968 59.1328 57.8436C63.2695 56.3905 69.1289 58.746 76.7109 64.8983" fill="white"/>
<path d="M46.957 77.0618C46.5586 77.0618 46.1484 76.9798 45.7617 76.8157C44.2148 76.1595 43.4883 74.3548 44.1445 72.8079C48.5156 62.5657 53.0859 56.7298 58.1133 54.9603C63.375 53.1204 70.0898 55.5931 78.6328 62.5306C79.9453 63.597 80.1445 65.5189 79.0781 66.8314C78.0117 68.1439 76.0898 68.3431 74.7773 67.2767C66.0352 60.1868 61.8516 60.1282 60.1289 60.7376C58.2891 61.3822 54.4922 64.1243 49.7578 75.2103C49.2773 76.3704 48.1523 77.0618 46.957 77.0618Z" fill="#9292A5"/>
<path d="M22.5103 79.5684L80.0681 64.1465L81.6513 70.0551L24.0935 85.477L22.5103 79.5684Z" fill="#9292A5"/>
</svg>
