<svg width="16" height="16" viewBox="0 0 16 16" fill="none" xmlns="http://www.w3.org/2000/svg">
<g id="Group 20795">
<path id="Vector" d="M1.59246 1.59246C-0.530819 3.71573 -0.530819 7.15825 1.59246 9.28153L3.64313 11.3322L4.0396 11.2559L4.04039 11.2557L4.05148 11.2533C4.06298 11.2507 4.08266 11.2462 4.11003 11.2393C4.16479 11.2255 4.2503 11.2022 4.36277 11.1663C4.58772 11.0944 4.92032 10.9723 5.33034 10.7747C6.14968 10.3798 7.28041 9.68297 8.48153 8.48185C9.68257 7.28081 10.3795 6.14996 10.7744 5.3305C10.9721 4.92043 11.0943 4.58778 11.1663 4.36278C11.2022 4.25029 11.2255 4.16475 11.2393 4.10999C11.2462 4.0826 11.2507 4.06292 11.2533 4.05141L11.2557 4.04035L11.2558 4.03952L11.3323 3.64318L9.28153 1.59246C7.15825 -0.530819 3.71573 -0.530819 1.59246 1.59246Z" fill="white"/>
<path id="Vector_2" d="M12.3349 4.64551C12.3269 4.67162 12.3184 4.69897 12.3093 4.72752C12.2217 5.00169 12.0792 5.3868 11.8554 5.85113C11.4075 6.78052 10.6351 8.02492 9.32998 9.33004C8.02494 10.6351 6.78054 11.4075 5.85127 11.8552C5.38698 12.079 5.0019 12.2215 4.72776 12.309C4.69926 12.3181 4.67195 12.3267 4.64587 12.3346L6.71846 14.4072C8.84174 16.5304 12.2842 16.5304 14.4075 14.4072C16.5308 12.2839 16.5308 8.8414 14.4075 6.71812L12.3349 4.64551Z" fill="white"/>
</g>
</svg>
