<svg width="27" height="28" viewBox="0 0 27 28" fill="none" xmlns="http://www.w3.org/2000/svg">
<g id="Setting Icon">
<path id="Vector" fill-rule="evenodd" clip-rule="evenodd" d="M12.13 26C11.5173 26 10.9946 25.5452 10.8949 24.9251C10.803 24.4235 10.4509 24.0137 9.97722 23.8571C9.59129 23.7212 9.21392 23.5609 8.84734 23.3771C8.41112 23.1483 7.88782 23.1826 7.48345 23.4663C6.99411 23.8271 6.32189 23.7713 5.89559 23.3343L4.23754 21.6337C3.79131 21.176 3.73333 20.4545 4.10048 19.928C4.38363 19.5037 4.42441 18.9567 4.20745 18.4931C4.0645 18.1712 3.93839 17.8415 3.82971 17.5057C3.67403 16.9765 3.24435 16.5802 2.71486 16.4771C2.07635 16.3726 1.60498 15.8101 1.60002 15.1469V13.0194C1.59663 12.255 2.13495 11.6012 2.87031 11.4766C3.42817 11.3677 3.89399 10.9758 4.10717 10.436C4.17068 10.284 4.23754 10.1331 4.30774 9.98343C4.59125 9.42361 4.55209 8.74933 4.20577 8.228C3.77269 7.61065 3.83919 6.76244 4.36289 6.224L5.58137 4.97429C6.18233 4.35769 7.13012 4.27789 7.82108 4.78571L7.85951 4.81314C8.37546 5.1693 9.032 5.23381 9.60449 4.98457C10.2169 4.75847 10.6684 4.2187 10.7929 3.56343L10.8097 3.50514C10.9471 2.63766 11.6776 2.00036 12.5346 2H14.0054C14.8854 1.99959 15.6364 2.65241 15.7804 3.54286L15.8071 3.66286C15.9253 4.29058 16.3533 4.81009 16.937 5.03429C17.4997 5.28195 18.1466 5.21727 18.652 4.86286L18.7355 4.80114C19.4443 4.27715 20.4191 4.35774 21.0371 4.99143L22.1586 6.14343C22.7207 6.72313 22.7913 7.63474 22.3257 8.29829C21.9609 8.85289 21.9145 9.56557 22.2037 10.1651L22.2757 10.3366C22.5098 10.922 23.0167 11.3463 23.6227 11.4646C24.4149 11.5971 24.9974 12.2975 25 13.1206V15.0286C24.9998 15.7544 24.4879 16.3736 23.7899 16.4926C23.2158 16.6055 22.7481 17.0319 22.5714 17.6034C22.4934 17.8319 22.4065 18.0606 22.3106 18.2891C22.0876 18.7914 22.1372 19.3767 22.4411 19.832C22.8421 20.4042 22.7798 21.1902 22.294 21.6886L20.7379 23.2863C20.2929 23.7426 19.5911 23.8014 19.0799 23.4251C18.653 23.126 18.1002 23.0931 17.6425 23.3394C17.3162 23.5052 16.9814 23.6523 16.6396 23.78C16.1615 23.9492 15.809 24.3689 15.717 24.8789C15.6194 25.5205 15.083 25.9952 14.4499 26H12.13Z" stroke="white" stroke-width="2.57143" stroke-linecap="round" stroke-linejoin="round"/>
<path id="Vector_2" fill-rule="evenodd" clip-rule="evenodd" d="M17.1992 14.0004C17.1992 16.2093 15.4534 17.9999 13.2997 17.9999C11.146 17.9999 9.40027 16.2093 9.40027 14.0004C9.40027 11.7916 11.146 10.001 13.2997 10.001C15.4534 10.001 17.1992 11.7916 17.1992 14.0004Z" stroke="white" stroke-width="2.57143" stroke-linecap="round" stroke-linejoin="round"/>
</g>
</svg>
