<svg width="86" height="87" viewBox="0 0 86 87" fill="none" xmlns="http://www.w3.org/2000/svg">
<g id="&#235;&#172;&#184;&#236;&#132;&#156; &#236;&#157;&#189;&#236;&#150;&#180;&#236;&#163;&#188;&#234;&#184;&#176;" clip-path="url(#clip0_68_2851)">
<g id="_&#235;&#160;&#136;&#236;&#157;&#180;&#236;&#150;&#180;_1-2">
<path id="Vector" d="M61.075 77V2.47C61.075 1.11 59.975 0 58.605 0H22.455V19.72C22.455 21.08 21.355 22.19 19.985 22.19H0.265015V75.11C0.265015 76.47 1.36501 77.57 2.73501 77.57H52.605" fill="url(#paint0_linear_68_2851)"/>
<path id="Vector_2" d="M29.845 22.19C29.845 20.83 30.945 19.72 32.315 19.72H48.755C50.115 19.72 51.225 20.82 51.225 22.19C51.225 23.56 50.125 24.66 48.755 24.66H32.315C30.955 24.66 29.845 23.56 29.845 22.19ZM22.455 19.72V0C21.805 0 21.175 0.26 20.715 0.72L0.985015 20.44C0.525015 20.9 0.265015 21.53 0.265015 22.18H19.985C21.345 22.18 22.455 21.08 22.455 19.71V19.72ZM32.315 14.79H48.755C50.115 14.79 51.225 13.69 51.225 12.32C51.225 10.95 50.125 9.85 48.755 9.85H32.315C30.955 9.85 29.845 10.95 29.845 12.32C29.845 13.69 30.945 14.79 32.315 14.79ZM42.175 59.17H12.595C11.235 59.17 10.125 60.27 10.125 61.64C10.125 63.01 11.225 64.11 12.595 64.11H42.175C43.535 64.11 44.645 63.01 44.645 61.64C44.645 60.27 43.545 59.17 42.175 59.17ZM51.215 32.05C51.215 30.69 50.115 29.58 48.745 29.58H12.595C11.235 29.58 10.125 30.68 10.125 32.05C10.125 33.42 11.225 34.52 12.595 34.52H48.755C50.115 34.52 51.225 33.42 51.225 32.05H51.215ZM42.175 39.44H12.595C11.235 39.44 10.125 40.54 10.125 41.91C10.125 43.28 11.225 44.38 12.595 44.38H42.175C43.535 44.38 44.645 43.28 44.645 41.91C44.645 40.54 43.545 39.44 42.175 39.44ZM42.175 49.31H12.595C11.235 49.31 10.125 50.41 10.125 51.78C10.125 53.15 11.225 54.25 12.595 54.25H42.175C43.535 54.25 44.645 53.15 44.645 51.78C44.645 50.41 43.545 49.31 42.175 49.31Z" fill="url(#paint1_linear_68_2851)"/>
<path id="Vector_3" d="M78.125 55.22C76.955 56.28 76.865 58.1 77.925 59.27C80.755 62.42 80.755 67.57 77.925 70.72C76.865 71.89 76.955 73.71 78.125 74.77C79.295 75.83 81.095 75.74 82.145 74.57C84.455 72 85.735 68.6 85.735 65C85.735 61.4 84.465 58 82.145 55.43C81.085 54.26 79.285 54.17 78.125 55.23V55.22Z" fill="url(#paint2_linear_68_2851)"/>
<path id="Vector_4" d="M67.745 43.7002L55.255 54.4802H48.715C47.145 54.4802 45.865 55.7602 45.865 57.3502V72.6502C45.865 74.2302 47.145 75.5202 48.715 75.5202H55.255L67.745 86.3002C69.595 87.8902 72.445 86.5702 72.445 84.1202V45.8802C72.445 43.4302 69.595 42.1102 67.745 43.7002Z" fill="url(#paint3_linear_68_2851)"/>
</g>
</g>
<defs>
<linearGradient id="paint0_linear_68_2851" x1="30.675" y1="77.57" x2="30.675" y2="0" gradientUnits="userSpaceOnUse">
<stop stop-color="#C3FFE8"/>
<stop offset="1" stop-color="#F0FFF4"/>
</linearGradient>
<linearGradient id="paint1_linear_68_2851" x1="25.735" y1="64.1" x2="25.735" y2="0" gradientUnits="userSpaceOnUse">
<stop stop-color="#00B59C"/>
<stop offset="1" stop-color="#9CFFAC"/>
</linearGradient>
<linearGradient id="paint2_linear_68_2851" x1="81.465" y1="114.14" x2="81.465" y2="16.23" gradientUnits="userSpaceOnUse">
<stop stop-color="#00B59C"/>
<stop offset="1" stop-color="#9CFFAC"/>
</linearGradient>
<linearGradient id="paint3_linear_68_2851" x1="59.155" y1="114.14" x2="59.155" y2="16.2302" gradientUnits="userSpaceOnUse">
<stop stop-color="#00B59C"/>
<stop offset="1" stop-color="#9CFFAC"/>
</linearGradient>
<clipPath id="clip0_68_2851">
<rect width="85.47" height="86.99" fill="white" transform="translate(0.265015)"/>
</clipPath>
</defs>
</svg>
