<svg width="32" height="32" viewBox="0 0 32 32" fill="none" xmlns="http://www.w3.org/2000/svg">
<rect width="32" height="32" rx="16" fill="#115838"/>
<path d="M24.1427 19.0188C23.4812 18.3076 22.585 17.8748 21.6192 17.7999L21.5943 17.798L10.6819 17.7873C8.55551 17.7873 6.82556 19.5173 6.82556 21.6437C6.82556 23.7701 8.55551 25.5 10.6819 25.5H10.6825L21.5693 25.4893L21.6192 25.4873C22.585 25.4125 23.4811 24.9797 24.1427 24.2685C24.808 23.5533 25.1745 22.6211 25.1745 21.6437C25.1745 20.6663 24.808 19.7341 24.1427 19.0188ZM16.1113 24.186L10.6814 24.1914C9.27691 24.1911 8.13424 23.0483 8.13424 21.6437C8.13424 20.2389 9.27711 19.096 10.6812 19.096L16.1113 19.1014V24.186ZM8.53126 16.5553C9.18823 17.035 9.9962 17.2992 10.8063 17.2993H10.8065C11.084 17.2993 11.3628 17.2688 11.635 17.2088L11.6594 17.2034L22.1055 14.0477C24.1405 13.4308 25.2941 11.2734 24.6772 9.23837C24.4323 8.43059 23.9435 7.74111 23.2633 7.24436C22.6062 6.76434 21.7981 6.5 20.9879 6.5C20.6082 6.5002 20.2306 6.55643 19.8673 6.66688L9.4519 9.83564L9.4047 9.85197C8.50216 10.2038 7.77009 10.878 7.34335 11.7505C6.91413 12.628 6.83394 13.6265 7.11748 14.5618C7.36238 15.3695 7.85126 16.0588 8.53126 16.5553ZM20.2477 7.91911C20.4876 7.8461 20.7371 7.80889 20.9879 7.80868C22.0998 7.80868 23.1018 8.55273 23.4248 9.61803C23.8323 10.9624 23.0702 12.3877 21.7264 12.7951L16.5284 14.3653L15.0532 9.49946L20.2477 7.91911Z" fill="white"/>
</svg>
