<svg width="32" height="32" viewBox="0 0 32 32" fill="none" xmlns="http://www.w3.org/2000/svg">
<rect width="32" height="32" rx="16" fill="#115838"/>
<path d="M22.3973 20.0162C22.7924 19.8866 23.2004 20.3006 22.9569 20.6376C22.4099 21.3945 21.7311 22.0517 20.9493 22.5759C19.7732 23.3646 18.407 23.8233 16.9932 23.9043C15.5795 23.9853 14.1698 23.6857 12.9113 23.0365C11.6528 22.3874 10.5914 21.4126 9.83778 20.2137C9.08418 19.0147 8.66596 17.6356 8.6267 16.2201C8.58744 14.8046 8.92859 13.4044 9.61459 12.1656C10.3006 10.9267 11.3063 9.89458 12.5269 9.17669C13.7476 8.45881 15.1384 8.08146 16.5545 8.084C16.8003 8.08347 17.0458 8.09457 17.29 8.1172C17.7024 8.15541 17.7463 8.72971 17.3901 8.94117C16.5508 9.43956 15.8368 10.1353 15.3151 10.9764C14.5457 12.2168 14.2452 13.6916 14.4681 15.1342C14.6909 16.5767 15.4224 17.8921 16.5302 18.8425C17.6381 19.793 19.0494 20.3159 20.5091 20.3168C21.1535 20.3177 21.7907 20.2153 22.3973 20.0162Z" fill="white"/>
</svg>
