<svg width="98" height="78" viewBox="0 0 98 78" fill="none" xmlns="http://www.w3.org/2000/svg">
<g id="&#235;&#170;&#169;&#236;&#134;&#140;&#235;&#166;&#172; &#235;&#147;&#164;&#236;&#150;&#180;&#236;&#163;&#188;&#234;&#184;&#176;" clip-path="url(#clip0_68_2857)">
<g id="_&#235;&#160;&#136;&#236;&#157;&#180;&#236;&#150;&#180;_1-2">
<path id="Vector" d="M50.51 11.9004C43.04 11.9004 36.96 17.9804 36.96 25.4504V37.0704C36.96 38.1404 37.83 39.0104 38.9 39.0104H62.13C63.2 39.0104 64.07 38.1404 64.07 37.0704V25.4504C64.07 17.9804 57.99 11.9004 50.52 11.9004H50.51ZM62.12 42.8804H38.89C37.82 42.8804 36.95 43.7504 36.95 44.8204V48.6904C36.95 56.1604 43.03 62.2404 50.5 62.2404C57.97 62.2404 64.05 56.1604 64.05 48.6904V44.8204C64.05 43.7504 63.18 42.8804 62.11 42.8804H62.12Z" fill="url(#paint0_linear_68_2857)"/>
<path id="Vector_2" d="M66 35.1301H35.02C31.82 35.1301 29.21 37.7401 29.21 40.9401V48.6801C29.21 54.3401 31.42 59.7001 35.44 63.7601C39.02 67.3001 43.64 69.3401 48.57 69.7801V74.1001H38.89C37.82 74.1001 36.95 74.9701 36.95 76.0401C36.95 77.1101 37.82 77.9801 38.89 77.9801H62.12C63.19 77.9801 64.06 77.1101 64.06 76.0401C64.06 74.9701 63.19 74.1001 62.12 74.1001H52.44V69.8701C63.28 68.8901 71.8 59.7601 71.8 48.6701V40.9301C71.8 37.7301 69.19 35.1201 65.99 35.1201L66 35.1301ZM67.93 48.6901C67.93 58.3001 60.11 66.1101 50.51 66.1101C45.87 66.1101 41.49 64.3001 38.18 61.0301C34.9 57.7101 33.09 53.3201 33.09 48.6801V46.3901C33.7 46.6101 34.34 46.7501 35.03 46.7501H66.01C66.69 46.7501 67.34 46.6101 67.95 46.3901V48.6801L67.93 48.6901Z" fill="url(#paint1_linear_68_2857)"/>
<path id="Vector_3" d="M3.49998 26.26C1.75998 26.26 0.349976 24.85 0.349976 23.11V14.71C0.349976 12.97 1.75998 11.56 3.49998 11.56C5.23998 11.56 6.64998 12.97 6.64998 14.71V23.11C6.64998 24.85 5.23998 26.26 3.49998 26.26ZM94.5 26.26C92.76 26.26 91.35 24.85 91.35 23.11V14.71C91.35 12.97 92.76 11.56 94.5 11.56C96.24 11.56 97.65 12.97 97.65 14.71V23.11C97.65 24.85 96.24 26.26 94.5 26.26ZM19.25 34.66V3.15C19.25 1.41 17.84 0 16.1 0C14.36 0 12.95 1.41 12.95 3.15V34.66C12.95 36.4 14.36 37.81 16.1 37.81C17.84 37.81 19.25 36.4 19.25 34.66ZM31.86 27.31V10.5C31.86 8.76 30.45 7.35 28.71 7.35C26.97 7.35 25.56 8.76 25.56 10.5V27.3C25.56 29.04 26.97 30.45 28.71 30.45C30.45 30.45 31.86 29.04 31.86 27.3V27.31ZM73.46 23.1V14.7C73.46 12.96 72.05 11.55 70.31 11.55C68.57 11.55 67.16 12.96 67.16 14.7V23.1C67.16 24.84 68.57 26.25 70.31 26.25C72.05 26.25 73.46 24.84 73.46 23.1ZM86.06 31.51V6.3C86.06 4.56 84.65 3.15 82.91 3.15C81.17 3.15 79.76 4.56 79.76 6.3V31.51C79.76 33.25 81.17 34.66 82.91 34.66C84.65 34.66 86.06 33.25 86.06 31.51Z" fill="url(#paint2_linear_68_2857)"/>
</g>
</g>
<defs>
<linearGradient id="paint0_linear_68_2857" x1="50.51" y1="62.2404" x2="50.51" y2="11.9004" gradientUnits="userSpaceOnUse">
<stop stop-color="#00B59C"/>
<stop offset="1" stop-color="#9CFFAC"/>
</linearGradient>
<linearGradient id="paint1_linear_68_2857" x1="50.51" y1="77.9801" x2="50.51" y2="35.1301" gradientUnits="userSpaceOnUse">
<stop stop-color="#C3FFE8"/>
<stop offset="1" stop-color="#F0FFF4"/>
</linearGradient>
<linearGradient id="paint2_linear_68_2857" x1="49" y1="37.81" x2="49" y2="0" gradientUnits="userSpaceOnUse">
<stop stop-color="#00B59C"/>
<stop offset="1" stop-color="#9CFFAC"/>
</linearGradient>
<clipPath id="clip0_68_2857">
<rect width="97.3" height="77.98" fill="white" transform="translate(0.349976)"/>
</clipPath>
</defs>
</svg>
