<svg width="43" height="65" viewBox="0 0 43 65" fill="none" xmlns="http://www.w3.org/2000/svg">
    <g id="_&#235;&#160;&#136;&#236;&#157;&#180;&#236;&#150;&#180;_1">
        <g id="Group 20946">
            <path id="Vector" d="M42.8131 25H0V55.4009H42.8131V25Z" fill="url(#paint0_linear_1951_9938)"/>
            <g id="Union">
                <path fill-rule="evenodd" clip-rule="evenodd" d="M36.8578 11.3491H6.14355V15.3579C2.79806 15.399 0.09375 18.1156 0.09375 21.4546V24.9327H42.9069V21.4546C42.9069 18.1159 40.203 15.3994 36.8578 15.3579V11.3491ZM6.22088 64.9087H36.7804C40.1613 64.9087 42.9072 62.1761 42.9072 58.8115V55.3335H0.0940849V58.8115C0.0940849 62.1761 2.83998 64.9087 6.22088 64.9087Z" fill="url(#paint1_linear_1951_9938)"/>
                <path fill-rule="evenodd" clip-rule="evenodd" d="M36.8578 11.3491H6.14355V15.3579C2.79806 15.399 0.09375 18.1156 0.09375 21.4546V24.9327H42.9069V21.4546C42.9069 18.1159 40.203 15.3994 36.8578 15.3579V11.3491ZM6.22088 64.9087H36.7804C40.1613 64.9087 42.9072 62.1761 42.9072 58.8115V55.3335H0.0940849V58.8115C0.0940849 62.1761 2.83998 64.9087 6.22088 64.9087Z" fill="url(#paint2_linear_1951_9938)" fill-opacity="0.24"/>
                <path fill-rule="evenodd" clip-rule="evenodd" d="M36.8578 11.3491H6.14355V15.3579C2.79806 15.399 0.09375 18.1156 0.09375 21.4546V24.9327H42.9069V21.4546C42.9069 18.1159 40.203 15.3994 36.8578 15.3579V11.3491ZM6.22088 64.9087H36.7804C40.1613 64.9087 42.9072 62.1761 42.9072 58.8115V55.3335H0.0940849V58.8115C0.0940849 62.1761 2.83998 64.9087 6.22088 64.9087Z" fill="url(#paint3_linear_1951_9938)" fill-opacity="0.18"/>
            </g>
            <g id="Vector_2">
                <path d="M36.4902 0.0786133H6.50864C4.56009 0.0786133 2.98047 1.6506 2.98047 3.58974V7.95029C2.98047 9.88943 4.56009 11.4614 6.50864 11.4614H36.4902C38.4387 11.4614 40.0184 9.88943 40.0184 7.95029V3.58974C40.0184 1.6506 38.4387 0.0786133 36.4902 0.0786133Z" fill="url(#paint4_linear_1951_9938)"/>
                <path d="M36.4902 0.0786133H6.50864C4.56009 0.0786133 2.98047 1.6506 2.98047 3.58974V7.95029C2.98047 9.88943 4.56009 11.4614 6.50864 11.4614H36.4902C38.4387 11.4614 40.0184 9.88943 40.0184 7.95029V3.58974C40.0184 1.6506 38.4387 0.0786133 36.4902 0.0786133Z" fill="url(#paint5_linear_1951_9938)" fill-opacity="0.85"/>
            </g>
            <g id="Group 20945">
                <rect id="Rectangle 1236" x="7" y="42.8315" width="27.0612" height="11.9069" rx="5.95346" transform="rotate(-35.8053 7 42.8315)" fill="url(#paint6_linear_1951_9938)"/>
                <rect id="Rectangle 1238" x="17.7903" y="36.9092" width="2.63006" height="8.64053" rx="1.31503" transform="rotate(-35.8053 17.7903 36.9092)" fill="url(#paint7_linear_1951_9938)"/>
            </g>
        </g>
    </g>
    <defs>
        <linearGradient id="paint0_linear_1951_9938" x1="0" y1="25" x2="43" y2="25" gradientUnits="userSpaceOnUse">
            <stop stop-color="#80A4FF"/>
            <stop offset="0.5" stop-color="#9EB9FF"/>
            <stop offset="1" stop-color="#8AABFF"/>
        </linearGradient>
        <linearGradient id="paint1_linear_1951_9938" x1="21.5005" y1="11.3491" x2="21.5005" y2="64.9087" gradientUnits="userSpaceOnUse">
            <stop stop-color="#E6EDFF"/>
            <stop offset="0.765" stop-color="#E3EBFF"/>
            <stop offset="0.9999" stop-color="#D3E0FF"/>
        </linearGradient>
        <linearGradient id="paint2_linear_1951_9938" x1="43.0006" y1="11.3491" x2="1.50038" y2="11.3491" gradientUnits="userSpaceOnUse">
            <stop offset="0.0001" stop-color="#AAC2FF"/>
            <stop offset="0.52" stop-color="#E6EDFF"/>
            <stop offset="1" stop-color="#AAC2FF"/>
        </linearGradient>
        <linearGradient id="paint3_linear_1951_9938" x1="21.5005" y1="11.5" x2="21.5005" y2="18" gradientUnits="userSpaceOnUse">
            <stop offset="0.185" stop-color="#8AACFF"/>
            <stop offset="1" stop-color="#98B5FF" stop-opacity="0"/>
        </linearGradient>
        <linearGradient id="paint4_linear_1951_9938" x1="2.98047" y1="5.77001" x2="40.0184" y2="5.77001" gradientUnits="userSpaceOnUse">
            <stop stop-color="#719CFF"/>
            <stop offset="1" stop-color="#92B1FF"/>
        </linearGradient>
        <linearGradient id="paint5_linear_1951_9938" x1="2.98047" y1="8.23298e-10" x2="2.98047" y2="11.5" gradientUnits="userSpaceOnUse">
            <stop stop-color="#9CB7FF" stop-opacity="0"/>
            <stop offset="1" stop-color="#6993FF"/>
        </linearGradient>
        <linearGradient id="paint6_linear_1951_9938" x1="20.5306" y1="42.8315" x2="20.5306" y2="54.7385" gradientUnits="userSpaceOnUse">
            <stop stop-color="white"/>
            <stop offset="1" stop-color="#E0E9FF"/>
        </linearGradient>
        <linearGradient id="paint7_linear_1951_9938" x1="19.1053" y1="36.9092" x2="19.1053" y2="45.5497" gradientUnits="userSpaceOnUse">
            <stop stop-color="#E6EDFF"/>
            <stop offset="1" stop-color="#CBD9FF"/>
        </linearGradient>
    </defs>
</svg>
