<svg width="1862" height="629" viewBox="0 0 1862 629" fill="none" xmlns="http://www.w3.org/2000/svg">
<g clip-path="url(#clip0_215_1711)">
<path d="M242.19 628.89V438.22H0V357.94H584.74V438.22H335.86V628.89H242.19Z" fill="white"/>
<path d="M1128.66 303.74V628.89H1038.34V0H1128.66V223.46H1225.67V303.74H1128.66Z" fill="white"/>
<path d="M1774.28 612.17H1382.9V421.5H1473.22V531.89H1774.29V612.17H1774.28ZM1770.93 240.85V421.49H1680.61V0H1770.93V160.57H1861.25V240.85H1770.93Z" fill="white"/>
<path d="M1574.61 117.11H1516.11V175.61V234.11H1574.61C1606.92 234.11 1633.11 207.92 1633.11 175.61C1633.11 143.3 1606.92 117.11 1574.61 117.11Z" fill="white"/>
<path d="M1457.61 117.11H1516.11V58.6101C1516.11 26.3001 1489.92 0.110107 1457.61 0.110107C1425.3 0.110107 1399.11 26.3001 1399.11 58.6101V117.11H1340.61C1308.3 117.11 1282.11 143.3 1282.11 175.61C1282.11 207.92 1308.3 234.11 1340.61 234.11H1399.11V292.61C1399.11 324.92 1425.3 351.11 1457.61 351.11C1489.92 351.11 1516.11 324.92 1516.11 292.61V234.11H1457.61C1425.3 234.11 1399.11 207.92 1399.11 175.61C1399.11 143.3 1425.3 117.11 1457.61 117.11Z" fill="white"/>
<path d="M292.11 0.110107C202.64 0.110107 130.11 72.6401 130.11 162.11C130.11 251.58 202.64 324.11 292.11 324.11C381.58 324.11 454.11 251.58 454.11 162.11C454.11 72.6401 381.58 0.110107 292.11 0.110107ZM293.11 244.11C247.82 244.11 211.11 207.4 211.11 162.11C211.11 116.82 247.82 80.1101 293.11 80.1101C338.4 80.1101 375.11 116.82 375.11 162.11C375.11 207.4 338.4 244.11 293.11 244.11Z" fill="white"/>
<path d="M815.11 82.1101C725.64 82.1101 653.11 154.64 653.11 244.11C653.11 333.58 725.64 406.11 815.11 406.11C904.58 406.11 977.11 333.58 977.11 244.11C977.11 154.64 904.58 82.1101 815.11 82.1101ZM816.11 326.11C770.82 326.11 734.11 289.4 734.11 244.11C734.11 198.82 770.82 162.11 816.11 162.11C861.4 162.11 898.11 198.82 898.11 244.11C898.11 289.4 861.4 326.11 816.11 326.11Z" fill="white"/>
</g>
<defs>
<clipPath id="clip0_215_1711">
<rect width="1861.25" height="628.89" fill="white"/>
</clipPath>
</defs>
</svg>
