<svg width="36" height="28" viewBox="0 0 36 28" fill="currentColor" xmlns="http://www.w3.org/2000/svg">
<path id="Column Icon" fill-rule="evenodd" clip-rule="evenodd" d="M6.17781 0H29.8223C30.5168 0 31.2045 0.136801 31.8462 0.402593C32.4879 0.668384 33.0709 1.05796 33.5621 1.54908C34.0532 2.0402 34.4428 2.62324 34.7085 3.26492C34.9743 3.9066 35.1111 4.59434 35.1111 5.28889V22.7111C35.1111 24.1138 34.5539 25.4591 33.5621 26.4509C32.5702 27.4428 31.225 28 29.8223 28H6.17781C4.7751 28 3.42986 27.4428 2.438 26.4509C1.44614 25.4591 0.888916 24.1138 0.888916 22.7111V5.28889C0.888916 3.88619 1.44614 2.54094 2.438 1.54908C3.42986 0.557221 4.7751 0 6.17781 0ZM10.2222 9.33333C10.2222 8.92077 10.3861 8.52511 10.6779 8.23339C10.9696 7.94167 11.3652 7.77778 11.7778 7.77778H24.2223C24.6348 7.77778 25.0305 7.94167 25.3222 8.23339C25.6139 8.52511 25.7778 8.92077 25.7778 9.33333C25.7778 9.74589 25.6139 10.1416 25.3222 10.4333C25.0305 10.725 24.6348 10.8889 24.2223 10.8889H11.7778C11.3652 10.8889 10.9696 10.725 10.6779 10.4333C10.3861 10.1416 10.2222 9.74589 10.2222 9.33333ZM11.7778 12.4444C11.3652 12.4444 10.9696 12.6083 10.6779 12.9001C10.3861 13.1918 10.2222 13.5874 10.2222 14C10.2222 14.4126 10.3861 14.8082 10.6779 15.0999C10.9696 15.3917 11.3652 15.5556 11.7778 15.5556H24.2223C24.6348 15.5556 25.0305 15.3917 25.3222 15.0999C25.6139 14.8082 25.7778 14.4126 25.7778 14C25.7778 13.5874 25.6139 13.1918 25.3222 12.9001C25.0305 12.6083 24.6348 12.4444 24.2223 12.4444H11.7778ZM10.2222 18.6667C10.2222 18.2541 10.3861 17.8584 10.6779 17.5667C10.9696 17.275 11.3652 17.1111 11.7778 17.1111H18C18.4126 17.1111 18.8082 17.275 19.1 17.5667C19.3917 17.8584 19.5556 18.2541 19.5556 18.6667C19.5556 19.0792 19.3917 19.4749 19.1 19.7666C18.8082 20.0583 18.4126 20.2222 18 20.2222H11.7778C11.3652 20.2222 10.9696 20.0583 10.6779 19.7666C10.3861 19.4749 10.2222 19.0792 10.2222 18.6667Z" fill="current"/>
</svg>
