<svg width="28" height="24" viewBox="0 0 28 24" fill="currentColor" xmlns="http://www.w3.org/2000/svg">
<path id="Vector" fill-rule="evenodd" clip-rule="evenodd" d="M13.4606 0.439336C14.0463 1.02513 14.0463 1.97487 13.4606 2.56067L5.52123 10.5H25.8999C26.7284 10.5 27.3999 11.1716 27.3999 12C27.3999 12.8285 26.7284 13.5 25.8999 13.5H5.52123L13.4606 21.4394C14.0463 22.0251 14.0463 22.9749 13.4606 23.5607C12.8748 24.1464 11.925 24.1464 11.3393 23.5607L0.839238 13.0607C0.557943 12.7794 0.399902 12.3978 0.399902 12C0.399902 11.6022 0.557943 11.2206 0.839238 10.9394L11.3393 0.439336C11.925 -0.146445 12.8748 -0.146445 13.4606 0.439336Z" fill="current" fill-opacity="0.7"/>
</svg>
