<svg width="29" height="28" viewBox="0 0 29 28" fill="none" xmlns="http://www.w3.org/2000/svg">
<g id="double-left-chevron_svgrepo.com">
<path id="Vector" fill-rule="evenodd" clip-rule="evenodd" d="M15.6248 6.65911C16.0804 6.20349 16.0804 5.4648 15.6248 5.00919C15.1693 4.55358 14.4305 4.55358 13.9749 5.00919L5.80826 13.1759C5.58947 13.3946 5.46655 13.6914 5.46655 14.0008C5.46655 14.3102 5.58947 14.607 5.80826 14.8258L13.9749 22.9924C14.4305 23.448 15.1693 23.448 15.6248 22.9924C16.0804 22.5368 16.0804 21.7981 15.6248 21.3425L8.28313 14.0008L15.6248 6.65911ZM23.7915 6.65911C24.2471 6.20349 24.2471 5.4648 23.7915 5.00919C23.3359 4.55358 22.5972 4.55358 22.1416 5.00919L13.9749 13.1759C13.7562 13.3946 13.6332 13.6914 13.6332 14.0008C13.6332 14.3102 13.7562 14.607 13.9749 14.8258L22.1416 22.9924C22.5972 23.448 23.3359 23.448 23.7915 22.9924C24.2471 22.5368 24.2471 21.7981 23.7915 21.3425L16.4498 14.0008L23.7915 6.65911Z" fill="white"/>
</g>
</svg>
