<svg width="28" height="28" viewBox="0 0 28 28" fill="none" xmlns="http://www.w3.org/2000/svg">
<path fill-rule="evenodd" clip-rule="evenodd" d="M6.65838 5.00723C6.20276 4.55163 5.46407 4.55163 5.00845 5.00723C4.55285 5.46285 4.55285 6.20154 5.00845 6.65716L12.3502 13.9989L5.00845 21.3406C4.55285 21.7962 4.55285 22.5349 5.00845 22.9905C5.46407 23.4461 6.20276 23.4461 6.65838 22.9905L14.825 14.8238C15.2806 14.3682 15.2806 13.6295 14.825 13.1739L6.65838 5.00723ZM14.825 5.00723C14.3694 4.55163 13.6307 4.55163 13.1751 5.00723C12.7195 5.46285 12.7195 6.20154 13.1751 6.65716L20.5168 13.9989L13.1751 21.3406C12.7195 21.7962 12.7195 22.5349 13.1751 22.9905C13.6307 23.4461 14.3694 23.4461 14.825 22.9905L22.9917 14.8238C23.4473 14.3682 23.4473 13.6295 22.9917 13.1739L14.825 5.00723Z" fill="white"/>
</svg>
