<svg width="28" height="28" viewBox="0 0 28 28" fill="none" xmlns="http://www.w3.org/2000/svg">
<path id="Home Icon" d="M27.4869 12.7628L15.2369 0.51275C14.8952 0.171063 14.4472 0 13.9996 0C13.5521 0 13.1041 0.171063 12.7624 0.51275L0.51239 12.7628C-0.170985 13.4479 -0.13686 14.5197 0.546515 15.2031C1.23164 15.89 2.23308 15.9911 2.91864 15.3055L3.51626 14.7074V26.25C3.51626 27.2173 4.29895 28 5.26627 28H12.2663V21H15.7663V28H22.7663C23.7336 28 24.5163 27.2173 24.5163 26.25V14.7416L25.0391 15.2644C25.7225 15.9478 26.7668 15.8865 27.4523 15.2027C28.1361 14.5198 28.172 13.4461 27.4869 12.7628Z" fill="#115838"/>
</svg>
