<svg width="30" height="28" viewBox="0 0 30 28" fill="currentColor" xmlns="http://www.w3.org/2000/svg">
<g id="Group 21067">
<g id="Group">
<g id="Group_2">
<path id="Vector" d="M28.1518 5.93726H24.3335V7.21V8.48274V16.2324C24.3335 18.3377 22.6207 20.0507 20.5152 20.0507H12.6116L11.3994 20.8992L9.58117 22.1719L8.47583 22.9456C8.70848 23.2486 9.07326 23.4446 9.48476 23.4446H18.1909L24.3674 27.7683C24.5854 27.9209 24.8408 27.9984 25.0973 27.9984C25.2983 27.9984 25.5001 27.9509 25.685 27.8546C26.1059 27.6354 26.37 27.2003 26.37 26.7257V23.4447H28.1519C28.8548 23.4447 29.4246 22.8749 29.4246 22.172V7.21C29.4245 6.50708 28.8547 5.93726 28.1518 5.93726Z" fill="current"/>
</g>
</g>
<g id="Group_3">
<g id="Group_4">
<path id="Vector_2" d="M20.5155 0H1.84842C1.14557 0 0.575684 0.569769 0.575684 1.2728V16.2346C0.575684 16.9376 1.14557 17.5073 1.84842 17.5073H3.6303V20.7883C3.6303 21.2628 3.89434 21.698 4.3153 21.9172C4.50017 22.0135 4.70195 22.061 4.90299 22.061C5.15947 22.061 5.41495 21.9835 5.63295 21.8309L8.21224 20.0254L9.48498 19.1344L10.7577 18.2435L11.8094 17.5072H20.5155C21.2184 17.5072 21.7882 16.9375 21.7882 16.2345V8.48495V7.21221V5.93947V1.2728C21.7883 0.569769 21.2184 0 20.5155 0ZM15.4244 12.7276H14.6481H6.93944C6.23653 12.7276 5.6667 12.1576 5.6667 11.4548C5.6667 10.7519 6.23653 10.1821 6.93944 10.1821H15.4244C15.9342 10.1821 16.3728 10.4825 16.5759 10.9154C16.6529 11.0794 16.6972 11.2617 16.6972 11.4548C16.6972 12.1576 16.1274 12.7276 15.4244 12.7276ZM15.4244 7.63644H6.93944C6.23653 7.63644 5.6667 7.06656 5.6667 6.3637C5.6667 5.66079 6.23653 5.09096 6.93944 5.09096H15.4244C16.1274 5.09096 16.6972 5.66084 16.6972 6.3637C16.6972 7.06662 16.1274 7.63644 15.4244 7.63644Z" fill="current"/>
</g>
</g>
</g>
</svg>
