<svg width="57" height="56" viewBox="0 0 57 56" fill="none" xmlns="http://www.w3.org/2000/svg">
<g id="setting-4_svgrepo.com" filter="url(#filter0_d_94_2819)">
<rect x="10.8" y="10" width="36" height="36" rx="12" fill="white"/>
<path id="Vector" fill-rule="evenodd" clip-rule="evenodd" d="M26.3052 28.0188C26.305 27.017 26.9948 26.1545 27.9528 25.9589C28.9108 25.7632 29.8702 26.2889 30.2442 27.2144C30.6181 28.14 30.3026 29.2076 29.4905 29.7644C28.6783 30.3211 27.5959 30.2119 26.9051 29.5035C26.5211 29.1098 26.3053 28.5758 26.3052 28.0188Z" stroke="#115838" stroke-width="1.575" stroke-linecap="round" stroke-linejoin="round"/>
<path id="Vector_2" fill-rule="evenodd" clip-rule="evenodd" d="M26.8889 21.1469C26.8748 20.6012 27.1507 20.0907 27.6092 19.8135C28.0678 19.5364 28.6369 19.5364 29.0955 19.8135C29.554 20.0907 29.8298 20.6012 29.8158 21.1469V21.8998C30.9267 22.1789 31.9394 22.771 32.7396 23.6092L33.3221 23.2585C33.6588 23.0564 34.0606 23.0019 34.4368 23.1074C34.813 23.2129 35.132 23.4695 35.3216 23.8192C35.7258 24.5483 35.488 25.475 34.7861 25.9055L34.2435 26.2321C34.5769 27.3975 34.5769 28.6367 34.2435 29.8021L34.7861 30.1286C35.4904 30.5592 35.7285 31.4891 35.3216 32.2192C35.1316 32.5685 34.8126 32.8246 34.4364 32.9297C34.0602 33.0348 33.6585 32.9801 33.3221 32.7778L32.7396 32.4271C31.9394 33.2662 30.9263 33.859 29.8147 34.1386V34.8914C29.8288 35.4371 29.5531 35.9477 29.0944 36.2248C28.6359 36.5019 28.0668 36.5019 27.6082 36.2248C27.1496 35.9477 26.8738 35.4371 26.8879 34.8914V34.1386C25.777 33.8595 24.7643 33.2674 23.964 32.4292L23.3815 32.7799C23.045 32.9817 22.6434 33.036 22.2674 32.9304C21.8914 32.8249 21.5727 32.5685 21.3832 32.2192C20.9789 31.49 21.2167 30.5633 21.9186 30.1328L22.4612 29.8063C22.1278 28.6409 22.1278 27.4017 22.4612 26.2363L21.9186 25.9097C21.2143 25.4791 20.9762 24.5492 21.3832 23.8192C21.573 23.4699 21.8921 23.2137 22.2683 23.1086C22.6446 23.0035 23.0462 23.0583 23.3826 23.2606L23.9651 23.6113C24.7649 22.7719 25.7776 22.1787 26.8889 21.8987V21.1469Z" stroke="#115838" stroke-width="1.575" stroke-linecap="round" stroke-linejoin="round"/>
</g>
<defs>
<filter id="filter0_d_94_2819" x="0.800049" y="0" width="56" height="56" filterUnits="userSpaceOnUse" color-interpolation-filters="sRGB">
<feFlood flood-opacity="0" result="BackgroundImageFix"/>
<feColorMatrix in="SourceAlpha" type="matrix" values="0 0 0 0 0 0 0 0 0 0 0 0 0 0 0 0 0 0 127 0" result="hardAlpha"/>
<feOffset/>
<feGaussianBlur stdDeviation="5"/>
<feComposite in2="hardAlpha" operator="out"/>
<feColorMatrix type="matrix" values="0 0 0 0 1 0 0 0 0 1 0 0 0 0 1 0 0 0 0.5 0"/>
<feBlend mode="normal" in2="BackgroundImageFix" result="effect1_dropShadow_94_2819"/>
<feBlend mode="normal" in="SourceGraphic" in2="effect1_dropShadow_94_2819" result="shape"/>
</filter>
</defs>
</svg>
