<svg width="576" height="196" viewBox="0 0 576 196" fill="none" xmlns="http://www.w3.org/2000/svg">
<g clip-path="url(#clip0_104_1892)">
<path d="M74.9504 195.567V136.274H0V111.309H180.959V136.274H103.938V195.567H74.9504Z" fill="black"/>
<path d="M349.286 94.4548V195.568H321.334V0H349.286V69.4899H379.307V94.4548H349.286Z" fill="black"/>
<path d="M549.085 190.368H427.965V131.075H455.917V165.403H549.089V190.368H549.085ZM548.049 74.8978V131.072H520.097V0H548.049V49.9329H576V74.8978H548.049Z" fill="black"/>
<path d="M451.086 36.418C441.087 36.418 432.982 44.5623 432.982 54.6099C432.982 64.6574 441.087 72.8018 451.086 72.8018H469.19V54.6099V36.418H451.086Z" fill="white"/>
<path d="M487.294 36.418H469.19V54.6099V72.8018H487.294C497.293 72.8018 505.398 64.6574 505.398 54.6099C505.398 44.5623 497.293 36.418 487.294 36.418Z" fill="black"/>
<path d="M451.086 36.418H469.19V18.2261C469.19 8.17855 461.085 0.0341797 451.086 0.0341797C441.087 0.0341797 432.982 8.17855 432.982 18.2261V36.418H414.878C404.879 36.418 396.774 44.5623 396.774 54.6099C396.774 64.6574 404.879 72.8018 414.878 72.8018H432.982V90.9937C432.982 101.041 441.087 109.186 451.086 109.186C461.085 109.186 469.19 101.041 469.19 90.9937V72.8018H451.086C441.087 72.8018 432.982 64.6574 432.982 54.6099C432.982 44.5623 441.087 36.418 451.086 36.418Z" fill="black"/>
<path d="M90.3991 0.0341797C62.7109 0.0341797 40.2651 22.589 40.2651 50.4117C40.2651 78.2345 62.7109 100.789 90.3991 100.789C118.087 100.789 140.533 78.2345 140.533 50.4117C140.533 22.589 118.087 0.0341797 90.3991 0.0341797ZM90.7086 75.9115C76.6927 75.9115 65.3321 64.4957 65.3321 50.4117C65.3321 36.3278 76.6927 24.912 90.7086 24.912C104.724 24.912 116.085 36.3278 116.085 50.4117C116.085 64.4957 104.724 75.9115 90.7086 75.9115Z" fill="black"/>
<path d="M252.252 25.5339C224.563 25.5339 202.118 48.0888 202.118 75.9115C202.118 103.734 224.563 126.289 252.252 126.289C279.94 126.289 302.386 103.734 302.386 75.9115C302.386 48.0888 279.94 25.5339 252.252 25.5339ZM252.561 101.411C238.545 101.411 227.185 89.9954 227.185 75.9115C227.185 61.8275 238.545 50.4117 252.561 50.4117C266.577 50.4117 277.938 61.8275 277.938 75.9115C277.938 89.9954 266.577 101.411 252.561 101.411Z" fill="black"/>
</g>
<defs>
<clipPath id="clip0_104_1892">
<rect width="576" height="195.568" fill="white"/>
</clipPath>
</defs>
</svg>
