<svg width="1152" height="520" viewBox="0 0 1152 520" fill="none" xmlns="http://www.w3.org/2000/svg">
<g clip-path="url(#clip0_96_4105)">
<path d="M362.95 195.567V136.274H288V111.309H468.959V136.274H391.938V195.567H362.95Z" fill="black"/>
<path d="M637.286 94.4548V195.568H609.334V0H637.286V69.4899H667.307V94.4548H637.286Z" fill="black"/>
<path d="M837.085 190.368H715.965V131.075H743.917V165.403H837.089V190.368H837.085ZM836.049 74.8978V131.072H808.097V0H836.049V49.9329H864V74.8978H836.049Z" fill="black"/>
<path d="M739.086 36.418C729.087 36.418 720.982 44.5623 720.982 54.6099C720.982 64.6574 729.087 72.8018 739.086 72.8018H757.19V54.6099V36.418H739.086Z" fill="white"/>
<path d="M775.294 36.418H757.19V54.6099V72.8018H775.294C785.293 72.8018 793.398 64.6574 793.398 54.6099C793.398 44.5623 785.293 36.418 775.294 36.418Z" fill="black"/>
<path d="M739.086 36.418H757.19V18.2261C757.19 8.17855 749.085 0.0341797 739.086 0.0341797C729.087 0.0341797 720.982 8.17855 720.982 18.2261V36.418H702.878C692.879 36.418 684.774 44.5623 684.774 54.6099C684.774 64.6574 692.879 72.8018 702.878 72.8018H720.982V90.9937C720.982 101.041 729.087 109.186 739.086 109.186C749.085 109.186 757.19 101.041 757.19 90.9937V72.8018H739.086C729.087 72.8018 720.982 64.6574 720.982 54.6099C720.982 44.5623 729.087 36.418 739.086 36.418Z" fill="black"/>
<path d="M378.399 0.0341797C350.711 0.0341797 328.265 22.589 328.265 50.4117C328.265 78.2345 350.711 100.789 378.399 100.789C406.087 100.789 428.533 78.2345 428.533 50.4117C428.533 22.589 406.087 0.0341797 378.399 0.0341797ZM378.709 75.9115C364.693 75.9115 353.332 64.4957 353.332 50.4117C353.332 36.3278 364.693 24.912 378.709 24.912C392.725 24.912 404.085 36.3278 404.085 50.4117C404.085 64.4957 392.725 75.9115 378.709 75.9115Z" fill="black"/>
<path d="M540.252 25.5339C512.563 25.5339 490.118 48.0888 490.118 75.9115C490.118 103.734 512.563 126.289 540.252 126.289C567.94 126.289 590.386 103.734 590.386 75.9115C590.386 48.0888 567.94 25.5339 540.252 25.5339ZM540.561 101.411C526.545 101.411 515.185 89.9954 515.185 75.9115C515.185 61.8275 526.545 50.4117 540.561 50.4117C554.577 50.4117 565.938 61.8275 565.938 75.9115C565.938 89.9954 554.577 101.411 540.561 101.411Z" fill="black"/>
</g>
<path d="M62.0312 365.74V419.88H52.1094V406.443H42.5V398.552H52.1094V391.443H42.5V383.396H52.1094V365.74H62.0312ZM41.7969 373.161V381.052H2.26562V373.161H17.5781V365.583H27.5V373.161H41.7969ZM22.4219 383.552C32.1875 383.552 39.2188 389.333 39.2969 397.536C39.2188 405.74 32.1875 411.443 22.4219 411.443C12.7344 411.443 5.70312 405.74 5.78125 397.536C5.70312 389.333 12.7344 383.552 22.4219 383.552ZM22.4219 391.286C18.0469 391.365 15 393.552 15.0781 397.536C15 401.599 18.0469 403.865 22.4219 403.865C26.7188 403.865 29.8438 401.599 29.9219 397.536C29.8438 393.552 26.7188 391.365 22.4219 391.286ZM63.5156 427.536V435.505H14.6875V415.271H24.7656V427.536H63.5156ZM133.281 365.661V436.755H123.75V401.13H117.734V433.474H108.281V413.083L102.656 420.583C96.0547 417.107 91.7969 411.208 89.2969 403.865C86.9141 412.302 82.6953 419.138 75.9375 423.161L69.7656 415.505C80.5469 409.411 84.2188 396.833 84.2188 383.24V380.974H72.1875V373.005H104.766V380.974H93.9062V383.24C93.9062 395.622 97.5781 407.419 108.281 412.927V366.677H117.734V393.005H123.75V365.661H133.281ZM198.672 370.818V375.271C198.672 380.193 198.672 387.302 197.031 396.13L187.266 395.193C188.516 388.357 188.828 383.2 188.906 378.943H162.109V370.818H198.672ZM181.016 387.224V400.818C188.086 400.544 195.352 399.997 202.031 399.021L202.578 406.208C187.812 408.943 171.094 409.177 158.75 409.255L157.891 401.286C161.875 401.286 166.367 401.286 171.094 401.13V387.224H181.016ZM216.094 365.661V387.302H224.688V395.661H216.094V418.865H205.859V365.661H216.094ZM218.281 427.536V435.505H168.359V414.099H178.359V427.536H218.281ZM287.578 365.661V436.911H277.656V365.661H287.578ZM265.547 371.599V399.021H242.109V412.068C252.93 412.029 262.148 411.404 272.578 409.724L273.438 417.771C261.719 419.802 251.172 420.271 238.203 420.271H231.797V391.13H255.391V379.646H231.719V371.599H265.547ZM323.359 385.036C323.281 395.896 329.062 408.396 340.781 413.786L335.234 421.599C327.305 417.966 321.641 410.7 318.516 402.146C315.312 411.56 309.492 419.529 301.25 423.396L295.469 415.505C307.344 409.958 313.281 396.755 313.359 385.036V380.661H298.281V372.536H337.656V380.661H323.359V385.036ZM353.203 365.661V392.771H363.672V401.13H353.203V436.755H343.203V365.661H353.203ZM422.344 365.661V392.927H432.422V401.13H422.344V436.599H412.344V365.661H422.344ZM403.359 372.927C403.281 394.177 395 412.615 371.094 424.333L365.469 416.677C382.305 408.24 391.328 396.911 393.203 381.052H369.531V372.927H403.359ZM513.75 365.74V406.677H503.828V399.724H487.812V391.755H503.828V384.958H488.516C484.102 396.208 474.023 403.943 458.359 408.24L454.453 400.349C470.82 396.052 478.828 388.24 480.234 378.474H458.281V370.505H491.094C491.094 372.81 490.938 375.036 490.625 377.146H503.828V365.74H513.75ZM490.078 407.536C504.531 407.536 514.219 413.083 514.297 421.911C514.219 430.818 504.531 436.443 490.078 436.443C475.469 436.443 465.703 430.818 465.781 421.911C465.703 413.083 475.469 407.536 490.078 407.536ZM490.078 415.349C481.094 415.271 475.703 417.536 475.703 421.911C475.703 426.286 481.094 428.552 490.078 428.552C498.906 428.552 504.297 426.286 504.297 421.911C504.297 417.536 498.906 415.271 490.078 415.349ZM557.109 369.802V391.99H535.625V399.568C546.211 399.568 552.461 399.216 559.688 397.849L560.625 405.818C552.344 407.302 544.844 407.536 531.094 407.536H525.781V384.568H547.109V377.615H525.625V369.802H557.109ZM582.891 365.74V409.49H572.969V398.552H561.172V390.661H572.969V383.474H561.172V375.583H572.969V365.74H582.891ZM582.891 412.693V436.755H572.969V420.661H533.906V412.693H582.891ZM624.531 366.677C640.859 366.677 650.312 370.974 650.391 378.786C650.312 386.677 640.859 390.974 624.531 390.974C608.125 390.974 598.594 386.677 598.594 378.786C598.594 370.974 608.125 366.677 624.531 366.677ZM624.531 373.943C614.062 373.943 608.984 375.661 609.062 378.786C608.984 382.302 614.062 383.63 624.531 383.63C635.078 383.63 640.078 382.302 640.078 378.786C640.078 375.661 635.078 373.943 624.531 373.943ZM656.953 394.333V402.224H592.109V394.333H656.953ZM649.062 406.365V424.49H609.453V428.786H650.938V436.286H599.688V417.536H639.219V413.63H599.609V406.365H649.062ZM736.562 365.74V386.052H745.625V394.255H736.562V414.021H726.562V365.74H736.562ZM678.906 404.88C684.102 404.88 690.039 404.88 696.172 404.724V400.74C688.438 399.646 683.594 395.896 683.672 390.427C683.594 383.865 690.547 379.802 701.094 379.802C711.562 379.802 718.438 383.865 718.516 390.427C718.438 395.896 713.711 399.607 706.094 400.661V404.333C711.953 404.099 717.773 403.63 723.281 402.927L723.984 409.802C708.984 412.458 692.5 412.615 679.922 412.615L678.906 404.88ZM736.562 416.911V436.755H726.562V424.568H687.969V416.911H736.562ZM721.484 370.896V378.161H680.781V370.896H696.172V365.115H706.094V370.896H721.484ZM701.094 386.443C696.016 386.443 693.125 387.693 693.203 390.427C693.125 393.005 696.016 394.49 701.094 394.49C706.094 394.49 708.906 393.005 708.984 390.427C708.906 387.693 706.094 386.443 701.094 386.443ZM808.359 365.74V416.833H798.359V365.74H808.359ZM810.234 427.536V435.505H760.703V411.677H770.781V427.536H810.234ZM769.375 370.271C780.312 370.271 788.828 377.771 788.828 388.161C788.828 398.786 780.312 406.208 769.375 406.208C758.438 406.208 749.922 398.786 749.922 388.161C749.922 377.771 758.438 370.271 769.375 370.271ZM769.375 378.943C763.828 378.865 759.609 382.38 759.688 388.161C759.609 394.099 763.828 397.536 769.375 397.536C774.766 397.536 778.984 394.099 778.984 388.161C778.984 382.38 774.766 378.865 769.375 378.943ZM901.25 397.927V405.974H873.75V411.208C886.133 412.146 893.438 416.599 893.516 423.943C893.438 432.146 884.141 436.755 868.75 436.755C853.125 436.755 843.828 432.146 843.828 423.943C843.828 416.56 851.211 412.107 863.828 411.208V405.974H836.406V397.927H901.25ZM868.75 418.552C858.906 418.63 853.906 420.349 853.984 423.943C853.906 427.38 858.906 429.255 868.75 429.255C878.359 429.255 883.438 427.38 883.516 423.943C883.438 420.349 878.359 418.63 868.75 418.552ZM895.391 368.708V376.521H876.094C877.773 381.521 885 386.325 898.516 387.458L895 395.271C881.602 393.982 872.539 388.904 868.75 381.99C865 388.904 856.094 393.982 842.578 395.271L839.297 387.458C852.461 386.325 859.727 381.482 861.562 376.521H842.344V368.708H895.391ZM983.516 365.661V403.865H973.516V365.661H983.516ZM945.781 406.99V413.63H973.594V406.99H983.516V435.974H935.938V406.99H945.781ZM945.781 427.927H973.594V421.365H945.781V427.927ZM944.531 368.63C955.625 368.552 963.984 375.505 963.984 385.505C963.984 395.193 955.625 402.146 944.531 402.146C933.438 402.146 925.078 395.193 925.078 385.505C925.078 375.505 933.438 368.552 944.531 368.63ZM944.531 376.911C938.828 376.911 934.766 380.115 934.844 385.505C934.766 390.818 938.828 393.943 944.531 393.943C950.078 393.943 954.141 390.818 954.141 385.505C954.141 380.115 950.078 376.911 944.531 376.911ZM1052.89 365.661V436.755H1042.97V365.661H1052.89ZM1006.8 372.458V410.661C1016.41 410.544 1026.72 409.646 1037.19 407.615L1038.44 415.818C1025.94 418.396 1014.22 419.255 1003.2 419.177H996.953V372.458H1006.8ZM1118.36 365.661V392.068H1128.83V400.193H1118.36V436.911H1108.36V365.661H1118.36ZM1098.44 372.224V380.271H1075V411.443C1085.31 411.325 1093.83 410.857 1103.28 409.177L1104.38 417.536C1093.36 419.411 1083.67 419.724 1071.09 419.646H1065.08V372.224H1098.44ZM1140.62 430.271C1136.95 430.271 1133.98 427.302 1134.06 423.708C1133.98 420.115 1136.95 417.224 1140.62 417.224C1144.06 417.224 1147.11 420.115 1147.11 423.708C1147.11 427.302 1144.06 430.271 1140.62 430.271Z" fill="#1D1D1D"/>
<path d="M220.586 458.888V473.107H226.93V478.849H220.586V492.685H213.586V458.888H220.586ZM180.227 486.286C183.863 486.286 187.992 486.286 192.312 486.177V483.388C186.898 482.622 183.535 479.97 183.562 476.169C183.535 471.548 188.375 468.704 195.758 468.732C203.086 468.704 207.926 471.548 207.953 476.169C207.926 479.97 204.59 482.595 199.258 483.361V485.931C203.359 485.712 207.461 485.411 211.289 484.919L211.781 489.732C201.254 491.591 189.715 491.7 180.938 491.7L180.227 486.286ZM181.539 467.583V462.497H192.312V458.45H199.258V462.497H210.031V467.583H181.539ZM186.57 500.068V494.708H220.586V508.599H213.586V500.068H186.57ZM190.234 476.169C190.207 477.974 192.203 479.04 195.758 479.013C199.258 479.04 201.254 477.974 201.281 476.169C201.254 474.228 199.258 473.38 195.758 473.38C192.203 473.38 190.207 474.228 190.234 476.169ZM270.844 458.888V494.654H263.844V458.888H270.844ZM229.938 474.583C229.938 467.282 235.898 462.032 243.555 462.06C251.184 462.032 257.145 467.282 257.172 474.583C257.145 481.993 251.184 487.216 243.555 487.216C235.898 487.216 229.938 481.993 229.938 474.583ZM236.773 474.583C236.719 478.74 239.645 481.146 243.555 481.146C247.328 481.146 250.254 478.74 250.281 474.583C250.254 470.536 247.328 468.103 243.555 468.13C239.645 468.103 236.719 470.536 236.773 474.583ZM237.484 507.724V491.044H244.539V502.146H272.156V507.724H237.484ZM332.148 458.833V508.708H325.094V458.833H332.148ZM291.953 480.052C291.926 469.197 297.477 462.333 305.133 462.333C312.625 462.333 318.203 469.197 318.203 480.052C318.203 490.99 312.625 497.825 305.133 497.825C297.477 497.825 291.926 490.99 291.953 480.052ZM298.68 480.052C298.652 487.462 301.25 491.509 305.133 491.482C308.906 491.509 311.449 487.462 311.477 480.052C311.449 472.669 308.906 468.622 305.133 468.622C301.25 468.622 298.652 472.669 298.68 480.052ZM381.914 463.974V469.607H341.062V463.974H358.07V458.779H365.016V463.974H381.914ZM338.875 496.677V490.99H384.43V496.677H365.016V508.654H358.07V496.677H338.875ZM344.398 480.052C344.371 474.529 350.797 471.521 361.57 471.521C372.262 471.521 378.715 474.529 378.742 480.052C378.715 485.548 372.262 488.556 361.57 488.583C350.797 488.556 344.371 485.548 344.398 480.052ZM351.617 480.052C351.617 482.322 354.898 483.388 361.57 483.388C368.16 483.388 371.469 482.322 371.469 480.052C371.469 477.782 368.16 476.689 361.57 476.661C354.898 476.689 351.617 477.782 351.617 480.052ZM421.398 463.974V476.935H426.375V459.544H432.938V506.302H426.375V482.513H421.398V496.075H401.602V463.974H421.398ZM408.109 490.607H414.891V469.497H408.109V490.607ZM436.656 508.599V458.833H443.328V508.599H436.656ZM462.742 460.31C470.316 460.282 476.004 465.04 476.031 471.685C476.004 478.275 470.316 482.978 462.742 483.005C455.059 482.978 449.344 478.275 449.344 471.685C449.344 465.04 455.059 460.282 462.742 460.31ZM456.125 471.685C456.07 475.24 458.887 477.345 462.742 477.372C466.516 477.345 469.277 475.24 469.305 471.685C469.277 468.103 466.516 465.997 462.742 465.997C458.914 465.997 456.07 468.103 456.125 471.685ZM456.836 491.208V485.849H490.25V499.357H463.781V502.583H491.617V508.052H456.945V494.271H483.305V491.208H456.836ZM483.25 483.771V458.833H490.25V483.771H483.25ZM538.648 458.833V508.708H531.594V458.833H538.648ZM498.453 480.052C498.426 469.197 503.977 462.333 511.633 462.333C519.125 462.333 524.703 469.197 524.703 480.052C524.703 490.99 519.125 497.825 511.633 497.825C503.977 497.825 498.426 490.99 498.453 480.052ZM505.18 480.052C505.152 487.462 507.75 491.509 511.633 491.482C515.406 491.509 517.949 487.462 517.977 480.052C517.949 472.669 515.406 468.622 511.633 468.622C507.75 468.622 505.152 472.669 505.18 480.052ZM566.703 461.075V466.982H576.875V461.075H583.875V482.786H559.758V461.075H566.703ZM564.734 491.427V486.013H597.766V499.521H571.68V502.747H599.188V508.271H564.844V494.544H590.82V491.427H564.734ZM566.703 477.318H576.875V472.232H566.703V477.318ZM590.766 484.154V458.833H597.766V468.513H604.492V474.146H597.766V484.154H590.766ZM632.766 476.443V482.568H652.07V488.146H606.68V482.568H625.875V476.443H632.766ZM609.031 473.982C620.023 472.587 625.738 466.9 625.766 461.294V459.654H632.875V461.294C632.848 467.118 638.426 472.587 649.664 473.982L646.984 479.396C638.562 478.138 632.383 474.611 629.238 469.634C626.066 474.583 619.887 478.165 611.492 479.396L609.031 473.982ZM611.875 499.794C611.875 494.134 618.41 490.907 629.32 490.88C640.148 490.907 646.602 494.134 646.656 499.794C646.602 505.454 640.148 508.626 629.32 508.599C618.41 508.626 611.875 505.454 611.875 499.794ZM618.984 499.794C618.957 502.228 622.348 503.404 629.32 503.404C636.129 503.404 639.629 502.228 639.656 499.794C639.629 497.306 636.129 496.212 629.32 496.185C622.348 496.212 618.957 497.306 618.984 499.794ZM684.117 470.482V475.786H675.312V479.013C679.359 478.822 683.352 478.575 687.18 478.193L687.508 482.841C677.008 484.427 665.633 484.673 656.172 484.646L655.352 479.341C659.371 479.341 663.746 479.341 668.203 479.232V475.786H659.727V460.857H683.625V466.052H666.945V470.482H684.117ZM662.898 492.193V486.779H696.969V499.958H669.898V502.747H698.227V508.271H663.062V494.872H690.078V492.193H662.898ZM690.023 485.029V458.888H696.969V485.029H690.023ZM759.531 458.833V508.599H752.859V458.833H759.531ZM716.82 480.38C716.82 469.251 721.059 462.361 727.648 462.388C731.805 462.361 735.086 465.095 736.918 469.88H742.797V459.544H749.359V506.302H742.797V490.88H736.945C735.086 495.72 731.832 498.482 727.648 498.482C721.059 498.482 716.82 491.564 716.82 480.38ZM723.164 480.38C723.109 488.036 724.723 491.81 727.648 491.755C730.52 491.81 732.27 488.036 732.297 480.38C732.27 472.751 730.52 468.95 727.648 468.95C724.723 468.95 723.109 472.751 723.164 480.38ZM738.312 475.458C738.531 476.99 738.641 478.63 738.641 480.38C738.641 482.103 738.531 483.743 738.34 485.247H742.797V475.458H738.312ZM806.727 458.833V488.365H799.781V476.607H792.016V470.974H799.781V458.833H806.727ZM764.453 482.896C772.602 480.161 776.32 473.654 776.484 467.419H766.477V461.841H793.492V467.419H783.594C783.73 473.216 787.285 479.068 795.023 481.638L791.578 487.107C786.109 485.329 782.309 481.72 780.148 477.263C777.961 482.322 773.969 486.396 768.062 488.419L764.453 482.896ZM772.602 499.083C772.602 493.04 779.109 489.486 789.719 489.458C800.355 489.486 806.863 493.04 806.891 499.083C806.863 505.126 800.355 508.654 789.719 508.654C779.109 508.654 772.602 505.126 772.602 499.083ZM779.547 499.083C779.547 501.927 783.129 503.349 789.719 503.349C796.336 503.349 799.918 501.927 799.945 499.083C799.918 496.212 796.336 494.79 789.719 494.818C783.129 494.79 779.547 496.212 779.547 499.083ZM854.852 458.833V485.575H847.852V458.833H854.852ZM813.945 472.724C813.945 465.724 819.797 460.857 827.562 460.911C835.301 460.857 841.152 465.724 841.18 472.724C841.152 479.505 835.301 484.372 827.562 484.372C819.797 484.372 813.945 479.505 813.945 472.724ZM820.781 472.724C820.727 476.415 823.57 478.63 827.562 478.63C831.445 478.63 834.262 476.415 834.289 472.724C834.262 468.978 831.445 466.681 827.562 466.708C823.57 466.681 820.727 468.978 820.781 472.724ZM821.547 508.052V487.763H828.438V492.411H847.906V487.763H854.852V508.052H821.547ZM828.438 502.419H847.906V497.825H828.438V502.419ZM903.414 458.833V508.599H896.469V458.833H903.414ZM864.258 496.294V463.591H871.148V490.361C877.875 490.251 885.094 489.622 892.422 488.2L893.297 493.943C884.574 495.775 876.316 496.322 868.633 496.294H864.258ZM949.242 458.833V477.318H956.57V483.005H949.242V508.708H942.242V458.833H949.242ZM911.945 496.622V463.427H935.297V469.06H918.891V490.88C926.109 490.825 932.07 490.443 938.688 489.294L939.453 495.146C931.715 496.458 924.934 496.65 916.156 496.622H911.945ZM964.828 504.06C962.258 504.06 960.18 502.009 960.234 499.466C960.18 496.95 962.258 494.9 964.828 494.927C967.262 494.9 969.367 496.95 969.367 499.466C969.367 502.009 967.262 504.06 964.828 504.06Z" fill="#115838"/>
<defs>
<clipPath id="clip0_96_4105">
<rect width="576" height="195.568" fill="white" transform="translate(288)"/>
</clipPath>
</defs>
</svg>
