<svg width="28" height="28" viewBox="0 0 28 28" fill="none" xmlns="http://www.w3.org/2000/svg">
    <path d="M26.194 1.80647C25.7909 1.40666 25.3086 1.09551 24.7782 0.892994C24.2478 0.690476 23.6809 0.601057 23.114 0.630472C21.9603 0.694461 20.8741 1.19498 20.076 2.03047L10.444 11.6065C10.3799 11.6768 10.3279 11.7572 10.29 11.8445C10.2347 11.9234 10.1878 12.0079 10.15 12.0965L8.39996 17.8085C8.33756 18.0217 8.32682 18.2468 8.36863 18.465C8.41044 18.6833 8.50359 18.8884 8.64039 19.0635C8.77719 19.2386 8.9537 19.3786 9.15534 19.472C9.35697 19.5654 9.57794 19.6094 9.79996 19.6005C9.92983 19.6209 10.0621 19.6209 10.192 19.6005L15.792 17.9625L16.044 17.8225C16.1312 17.7845 16.2116 17.7325 16.282 17.6685L25.9 8.03647C26.7354 7.2383 27.236 6.15217 27.3 4.99847C27.3546 4.41827 27.2842 3.83309 27.0934 3.28243C26.9026 2.73178 26.5959 2.22846 26.194 1.80647Z"
          fill="white"/>
    <path d="M25.2 28H2.8C2.05739 28 1.3452 27.705 0.820101 27.1799C0.294999 26.6548 0 25.9426 0 25.2V2.8C0 2.05739 0.294999 1.3452 0.820101 0.820101C1.3452 0.294999 2.05739 0 2.8 0H14C14.3713 0 14.7274 0.1475 14.9899 0.41005C15.2525 0.672601 15.4 1.0287 15.4 1.4C15.4 1.7713 15.2525 2.1274 14.9899 2.38995C14.7274 2.6525 14.3713 2.8 14 2.8H2.8V25.2H25.2V14C25.2 13.6287 25.3475 13.2726 25.61 13.0101C25.8726 12.7475 26.2287 12.6 26.6 12.6C26.9713 12.6 27.3274 12.7475 27.59 13.0101C27.8525 13.2726 28 13.6287 28 14V25.2C28 25.9426 27.705 26.6548 27.1799 27.1799C26.6548 27.705 25.9426 28 25.2 28Z"
          fill="white"/>
</svg>
